<?xml version="1.0" encoding="UTF-8"?>
<svg id="Calque_2" data-name="Calque 2" xmlns="http://www.w3.org/2000/svg" viewBox="0 0 5254.03 5254.03">
  <defs>
    <style>
      .cls-1 {
        fill: #ce0e2d;
      }

      .cls-1, .cls-2 {
        stroke-width: 0px;
      }

      .cls-2 {
        fill: #fff;
      }
    </style>
  </defs>
  <g id="Layer_1" data-name="Layer 1">
    <g id="ATHK-2">
      <path class="cls-1" d="M2627.02,5254.03C1173.4,5254.03,0,4080.63,0,2627.02S1173.4,0,2627.02,0s2627.02,1173.4,2627.02,2627.02-1173.4,2627.02-2627.02,2627.02Z"/>
      <path class="cls-2" d="M2627.02,5137.27c-1383.56,0-2504.42-1120.86-2504.42-2504.42S1243.45,128.43,2627.02,128.43s2504.42,1120.86,2504.42,2504.42h0c-5.84,1377.72-1120.86,2498.58-2504.42,2504.42Z"/>
      <path class="cls-1" d="M2627.02,5014.68c-1313.51,0-2381.83-1062.48-2387.67-2381.83C233.51,1313.51,1307.67,251.03,2621.18,251.03s2381.83,1062.48,2387.67,2381.83h0c0,1313.51-1068.32,2381.83-2381.83,2381.83Z"/>
      <polygon class="cls-2" points="1774.69 618.81 1821.4 718.05 1692.97 653.84 1617.07 688.86 1768.86 1021.62 1838.91 992.43 1745.51 776.43 1873.94 846.48 1920.64 951.56 1996.53 922.37 1844.75 583.78 1774.69 618.81"/>
      <polygon class="cls-2" points="3333.39 560.43 3280.85 735.56 3193.28 706.38 3245.82 531.24 3169.93 507.89 3117.39 683.02 3094.04 677.19 3105.72 723.89 3059.01 858.16 3134.91 881.51 3169.93 770.59 3257.5 799.78 3222.47 910.7 3298.36 934.05 3409.28 583.78 3333.39 560.43"/>
      <path class="cls-2" d="M4553.49,1587.88l-40.86-64.22c-52.54,29.19-110.92,52.54-169.3,70.05l-35.03-52.54,151.78-99.24-40.86-64.22-151.78,99.24-11.68-23.35-23.35,46.7-116.76,75.89,40.86,64.22,99.24-64.22,35.03,58.38c-29.19,29.19-58.38,58.38-87.57,81.73l40.86,64.22c46.7-35.03,81.73-75.89,110.92-122.59,70.05-11.68,134.27-35.03,198.49-70.05Z"/>
      <path class="cls-2" d="M4652.74,1803.88c-52.54,0-110.92,11.68-157.62,35.03l-23.35,192.65c-17.51,5.84-29.19,5.84-46.7,11.68l-29.19-81.73,29.19-11.68-29.19-70.05-93.4,35.03,81.73,210.16c58.38,0,116.76-17.51,163.46-40.86h0l17.51-192.65c11.68-5.84,29.19-5.84,40.86-11.68l35.03,81.73-29.19,17.51,29.19,70.05,93.4-35.03-81.73-210.16Z"/>
      <polygon class="cls-2" points="694.7 1593.72 753.08 1628.75 799.78 1558.7 1050.81 1710.48 1091.67 1646.26 840.64 1488.64 881.51 1418.59 823.13 1377.72 694.7 1593.72"/>
      <polygon class="cls-2" points="2043.23 519.57 2060.75 583.78 2142.48 566.27 2206.69 858.16 2288.42 840.65 2218.37 548.75 2305.94 531.24 2288.42 461.19 2043.23 519.57"/>
      <polygon class="cls-2" points="1004.1 1161.72 951.56 1220.1 1220.1 1465.29 1348.53 1325.18 1295.99 1278.48 1220.1 1360.21 1004.1 1161.72"/>
      <path class="cls-2" d="M630.48,1920.64l17.51-52.54c35.03,0,75.89,11.68,110.92,23.35l-35.03,87.57c-35.03-17.51-64.22-35.03-93.4-58.38ZM957.4,1879.78l-169.3-58.38c-64.22-23.35-128.43-29.19-192.65-23.35l-52.54,145.95c46.7,46.7,99.24,81.73,157.62,99.24l-11.68,23.35,52.54-11.68,134.27,46.7,23.35-75.89-110.92-40.86,29.19-87.57,110.92,40.86,29.19-58.38h0Z"/>
      <path class="cls-2" d="M3660.31,788.1l46.7,29.19c-11.68,35.03-23.35,70.05-40.86,105.08l-75.89-46.7c17.51-35.03,46.7-64.22,70.05-87.57ZM3642.79,1120.86l87.57-151.78c35.03-58.38,52.54-122.59,58.38-186.81l-134.27-81.73c-52.54,35.03-93.4,81.73-128.43,134.27l-23.35-11.68v52.54l-70.05,122.59,70.05,40.86,58.38-99.24,81.73,46.7-58.38,99.24,58.38,35.03h0Z"/>
      <path class="cls-2" d="M1331.02,951.56l40.86-35.03c29.19,23.35,58.38,46.7,81.73,75.89l-70.05,52.54c-23.35-23.35-40.86-58.38-52.54-93.4ZM1628.75,1097.51l-110.92-140.11c-40.86-52.54-93.41-93.41-151.78-122.59l-116.76,93.41c11.68,64.22,40.86,122.59,75.89,169.3l-23.35,17.51,52.54,17.51,87.57,110.92,64.22-46.7-70.05-93.41,70.05-58.38,70.05,93.41c-5.84,5.84,52.54-40.86,52.54-40.86Z"/>
      <path class="cls-2" d="M2632.85,624.65h-93.4c0-40.86,5.84-75.89,17.51-110.92h52.54c17.51,35.03,23.35,70.05,23.35,110.92h0ZM2545.29,811.46v-116.76h93.4v116.76h75.89v-140.11l29.19-46.7h-29.19c-5.84-64.22-17.51-122.59-46.7-180.97h-157.62c-29.19,58.38-46.7,128.43-46.7,192.65v180.97l81.73-5.84Z"/>
      <path class="cls-2" d="M4232.41,1150.05l-116.76,122.59c-29.19,29.19-64.22,58.38-105.08,81.73l-23.35-23.35c17.51-35.03,40.86-70.05,70.05-105.08l122.59-122.59-58.38-52.54-116.76,122.59c-29.19,29.19-70.05,52.54-105.08,75.89l-23.35-23.35c17.51-40.86,46.7-75.89,75.89-105.08l116.76-122.59-58.38-52.54-122.59,128.43c-46.7,46.7-81.73,105.08-99.24,169.3l93.4,93.41,29.19-11.68-11.68,29.19,93.4,93.41c64.22-23.35,116.76-58.38,163.46-105.08l122.59-128.43-58.38-52.54,11.68-11.68Z"/>
      <path class="cls-2" d="M1085.83,3619.44c-52.54,17.51-99.24,40.86-140.11,81.73l29.19,192.65c-11.68,5.84-29.19,17.51-40.86,23.35l-52.54-70.05,23.35-17.51-46.7-64.22-81.73,58.38,134.27,180.97c52.54-17.51,105.08-46.7,151.78-81.73h0l-29.19-192.65c11.68-5.84,23.35-11.68,35.03-17.51l52.54,70.05-23.35,17.51,46.7,64.22,81.73-58.38c0-5.84-128.43-175.13-140.11-186.81h0Z"/>
      <polygon class="cls-2" points="1926.48 4319.98 1903.13 4384.2 1984.86 4413.39 1885.61 4693.6 1961.5 4716.95 2054.91 4436.74 2136.64 4465.93 2159.99 4395.87 1926.48 4319.98"/>
      <path class="cls-2" d="M542.92,3023.99l75.89-17.51,11.68,70.05c-23.35,11.68-46.7,23.35-75.89,29.19l-11.68-81.73ZM764.75,2977.28l17.51,87.57c-29.19,5.84-52.54,5.84-81.73,5.84l-17.51-70.05,81.73-23.35ZM869.83,3129.07c-5.84-17.51-52.54-239.35-52.54-239.35l-145.95,29.19-5.84-29.19-40.86,35.03-169.3,35.03s46.7,221.84,52.54,239.35c58.38-11.68,122.59-35.03,175.13-64.22,64.22,11.68,128.43,5.84,186.81-5.84h0Z"/>
      <polygon class="cls-2" points="1792.21 4331.66 1827.24 4273.28 1617.07 4150.68 1541.18 4279.12 1517.83 4267.44 1517.83 4319.98 1430.26 4471.76 1646.26 4588.52 1681.29 4530.14 1535.34 4448.41 1576.21 4378.36 1663.78 4430.9 1698.8 4372.52 1611.24 4319.98 1646.26 4249.93 1792.21 4331.66"/>
      <path class="cls-2" d="M4086.47,4121.5l17.51,23.35-64.22,58.38-151.78-169.3,58.38-52.54,23.35,23.35,58.38-52.54c-23.35-23.35-52.54-46.7-75.89-64.22l-163.46,151.78,245.19,274.38,180.97-163.46-70.05-81.73-58.38,52.54Z"/>
      <polygon class="cls-2" points="3123.23 4378.36 3047.34 4401.71 3146.58 4757.82 3327.55 4705.28 3310.04 4641.06 3204.96 4670.25 3123.23 4378.36"/>
      <path class="cls-2" d="M887.35,3380.09l23.35,46.7c-29.19,23.35-58.38,46.7-93.41,58.38l-40.86-81.73c35.03-11.68,75.89-17.51,110.92-23.35ZM683.02,3642.79l163.46-75.89c58.38-29.19,110.92-70.05,151.78-116.76l-64.22-145.95c-64.22,0-128.43,11.68-186.81,35.03l-11.68-23.35-29.19,46.7-128.43,58.38,35.03,70.05,105.08-46.7,40.86,81.73-105.08,46.7,29.19,70.05h0Z"/>
      <path class="cls-2" d="M2305.94,4722.79l11.68-75.89,70.05,11.68v81.73l-81.73-17.51ZM2335.12,4495.12l87.57,11.68c-5.84,23.35-11.68,52.54-23.35,75.89l-70.05-11.68,5.84-75.89ZM2510.26,4448.41l-245.19-35.03-17.51,145.95h-29.19s23.35,52.54,23.35,52.54l-23.35,169.3,239.35,35.03c5.84-58.38,5.84-122.59,0-186.81,29.19-58.38,46.7-116.76,52.54-180.97Z"/>
      <path class="cls-2" d="M4687.76,3117.39l-75.89-17.51,11.68-70.05c29.19,0,52.54,0,81.73,5.84l-17.51,81.73h0ZM4465.93,3064.85l17.51-81.73c23.35,5.84,52.54,17.51,75.89,29.19l-17.51,70.05s-75.89-17.51-75.89-17.51ZM4430.9,2889.72l-52.54,233.51,145.95,29.19-5.84,29.19,52.54-17.51,169.3,35.03,52.54-239.35c-58.38-11.68-122.59-17.51-186.81-17.51-52.54-23.35-110.92-46.7-175.13-52.54h0Z"/>
      <path class="cls-2" d="M2749.61,4518.47l52.54-5.84c11.68,35.03,23.35,70.05,29.19,110.92l-87.57,5.84c0-35.03,0-75.89,5.84-110.92h0ZM2930.58,4798.68l-17.51-175.13c-5.84-64.22-29.19-128.43-64.22-186.81l-157.62,17.51c-23.35,58.38-29.19,122.59-29.19,186.81h-29.19l29.19,40.86,11.68,140.11,75.89-5.84-11.68-116.76,93.4-11.68,11.68,116.76,87.57-5.84h0Z"/>
      <polygon class="cls-2" points="4092.31 3712.85 4045.6 3777.06 4337.49 3993.06 4454.25 3841.28 4395.87 3800.42 4331.66 3887.98 4092.31 3712.85"/>
      <polygon class="cls-2" points="3426.8 4261.6 3356.74 4296.63 3520.2 4629.39 3689.5 4541.82 3660.31 4483.44 3561.07 4530.14 3426.8 4261.6"/>
      <path class="cls-2" d="M4296.63,3356.74l157.62,70.05c40.86,17.51,75.89,40.86,110.92,70.05l-23.35,52.54c-40.86-5.84-87.57-17.51-122.59-35.03l-163.46-75.89-35.03,70.05,163.46,70.05c58.38,23.35,128.43,40.86,192.65,35.03,0,0,64.22-140.11,64.22-145.95-40.86-52.54-93.4-87.57-157.62-116.76l-163.46-70.05-23.35,75.89h0Z"/>
      <path class="cls-2" d="M1506.16,4074.79l-58.38-52.54c-46.7,40.86-93.41,81.73-145.95,110.92l-46.7-40.86,122.59-134.27-58.38-52.54-122.59,134.27-17.51-17.51-11.68,52.54-93.41,105.08,58.38,52.54,75.89-87.57,52.54,46.7c-17.51,35.03-35.03,70.05-58.38,105.08,17.51,17.51,40.86,35.03,58.38,52.54,35.03-46.7,58.38-93.4,70.05-145.95,70.05-40.87,122.59-81.73,175.13-128.43h0Z"/>
      <path class="cls-2" d="M4249.93,2632.85c0,899.02-729.73,1628.75-1628.75,1628.75s-1628.75-729.73-1628.75-1628.75,729.73-1628.75,1628.75-1628.75h5.84c899.02,0,1622.91,729.73,1622.91,1628.75Z"/>
      <path class="cls-1" d="M2627.02,3823.77c-321.08,0-624.65-128.43-846.48-356.11,612.97-315.24,992.43-233.51,992.43-175.13s-93.4,210.16-93.4,210.16c502.05-70.05,864-373.62,864-776.43s-379.46-601.29-478.7-659.67c-99.24-58.38-52.54-151.78-396.97-280.21-204.32-75.89-496.21-151.78-612.97-180.97,175.13-93.41,367.78-145.95,566.27-145.95,653.84-11.68,1196.75,502.05,1208.43,1155.89,11.68,653.84-502.05,1196.75-1155.89,1208.43-11.68,0-29.19,0-46.7,0ZM2627.02,1120.86c-478.7,0-934.05,227.67-1220.1,612.97l210.16,58.38h0c145.95,46.7,642.16,186.81,735.56,216,268.54,87.57,338.59,122.59,414.48,204.32,93.4,93.4,192.65,180.97,303.57,251.03,105.08,64.22,169.3,175.13,169.3,303.57-5.84,116.76-70.05,227.67-169.3,291.89,0,0,23.35-64.22-5.84-93.4-29.19-29.19-128.43-81.73-385.3-64.22-256.86,17.51-595.46,140.11-823.13,262.7,70.05-105.08,163.46-192.65,274.38-251.03,0,0-134.27,0-893.19,332.76,332.76,770.59,1225.94,1120.86,1996.53,788.1,770.59-332.76,1120.86-1225.94,788.1-1996.53-245.19-554.59-793.94-916.54-1395.24-916.54Z"/>
      <path class="cls-1" d="M2609.5,2247.56c-58.38,0-122.59-11.68-175.13-35.03-87.57-46.7-221.84-145.95-344.43-35.03,0,0,99.24-11.68,93.4,11.68-17.51,93.4,29.19,192.65,116.76,233.51,140.11,58.38,291.89,11.68,309.4-175.13h0Z"/>
    </g>
  </g>
</svg>