<?xml version="1.0" encoding="UTF-8"?>
<svg id="Calque_2" data-name="Calque 2" xmlns="http://www.w3.org/2000/svg" viewBox="0 0 6539.94 4742.7">
  <defs>
    <style>
      .cls-1 {
        fill-rule: evenodd;
      }

      .cls-1, .cls-2 {
        fill: #fff;
      }

      .cls-3 {
        fill: #c2ccd2;
      }

      .cls-4 {
        fill: #0b77bd;
      }
    </style>
  </defs>
  <g id="Layer_2" data-name="Layer 2">
    <path class="cls-3" d="M2639.58,3303.05c350.51-53.65,701.03-37.56,1008.62,91.21l37.56-82.26c-497.16-159.16-1121.29-152.01-1584.46,103.72l132.34-307.59c-584.79,157.37-976.43,488.22-1371.65,826.21,287.92-681.36,913.84-1239.32,1622.02-1443.19l-35.77,112.67c620.55-202.08,1301.91-241.43,1852.71-150.22l-128.76-168.1,316.54,80.48,203.87-304.02,80.48,375.55,311.17,100.15s-227.12,94.78-216.39,100.15c1178.51,484.64,801.17,2097.72-318.32,2104.87-566.9,5.36-1006.83-507.89-987.16-1042.6-291.5-187.78-579.42-278.98-922.78-397.01"/>
    <path class="cls-3" d="M1922.46,1133.8c0-126.97,35.77-241.43,112.66-325.48,76.9-84.05,185.99-132.34,311.17-143.07,239.64-21.46,482.85-35.77,724.28-41.13h0l177.04-3.58v2045.85l-3.58,175.26-177.04-3.58c-30.4,0-268.25,8.94-311.17,10.73h-5.37l-191.35,17.88v-3.58l-119.82,5.37c-16.09,0-302.23,28.61-314.75,32.19l-202.08,32.19v-1799.06ZM2417.83,1153.48v-3.58c1.79-35.77,21.46-82.26,57.23-109.09,35.77-26.83,73.32-33.98,109.09-35.77,0,0,32.19-1.79,66.17-3.58l101.93-7.15v729.64l-89.42,5.37c-53.65,3.58-85.84,5.37-144.86,8.94l-101.93,7.15v-591.94h1.79Z"/>
    <path class="cls-3" d="M6312.82,3317.36s-237.85-73.32-273.61-84.05q-1.79,0-3.58-1.79h0c-107.3-30.4-203.87-57.23-273.61-76.9l-126.97-32.19c-121.61-28.61-223.54-87.63-293.29-175.26-69.74-87.63-103.72-200.29-103.72-323.69v-1328.73c0-130.55,39.34-250.37,134.13-323.69,60.8-48.28,135.91-69.75,214.6-69.75,41.13,0,84.05,5.37,126.97,16.1,16.09,3.58,62.59,16.1,135.91,37.55,71.53,19.67,164.53,46.5,255.73,73.32,184.2,51.86,363.03,103.72,363.03,103.72l69.74,19.67v903.11l-579.42-178.83-8.94-59.02s-16.09-105.51-32.19-202.08v1012.2c0,1.79,1.79,5.37,1.79,7.15,0,0-1.79,1.79,16.09,7.15,0,0,37.56,8.94,62.59,16.09,16.09-67.96,32.19-137.7,32.19-139.49l23.25-100.15,484.64,144.86,1.79,817.27-227.12-62.59Z"/>
    <path class="cls-3" d="M3.58,1412.78c0-101.93,48.29-185.99,103.72-243.21,57.23-59.02,119.82-94.78,178.83-114.45,266.46-85.84,642.01-143.07,659.9-146.64l101.93-16.1c42.92-23.25,89.42-42.92,137.7-51.86,130.55-26.83,527.56-101.93,545.44-105.51l205.66-39.34v2079.83l-3.58,155.59-153.8,17.88c-12.52,0-300.44,50.07-314.75,53.65l-214.6,48.28v-336.21l-597.3,141.28v205.66l-1.79,135.91-130.55,32.19c-1.79,0-46.5,12.52-92.99,26.83-48.29,14.31-101.94,32.19-143.07,44.71-25.04,7.15-46.5,14.31-48.29,16.09L0,3403.2v-1990.42h3.58Z"/>
    <path class="cls-3" d="M5034.16,2995.46h-3.58c-3.58,0-7.15-1.79-10.73-1.79-8.94-1.79-21.46-3.58-35.77-7.15-28.61-5.37-66.17-10.73-101.94-17.88-71.53-12.52-150.22-25.04-155.59-25.04l-71.53-7.15-84.05-8.94V717.12l189.56,14.31c19.67,1.79,60.8,8.94,121.61,17.88,57.23,8.94,125.18,21.46,171.68,28.61,33.98,5.37,51.86,8.94,67.96,12.52l132.34,33.98v2001.15l-1.79,216.39-218.18-46.5Z"/>
    <path class="cls-3" d="M4361.75,2897.1c-19.67-3.58-137.7-16.09-262.89-25.04-118.03-8.94-248.58-17.88-332.63-23.25l-91.21-3.58c-126.97-5.37-239.64-44.71-320.11-126.97-78.69-82.26-116.24-194.93-116.24-321.9V1012.2c0-110.88,32.19-212.81,107.3-284.35,94.78-89.42,211.02-98.36,282.56-98.36,19.67,0,35.77,0,48.28,1.79h26.83c25.04,0,55.44,1.79,100.15,3.58l51.86,1.79-1.79,1.79c50.07,3.58,112.67,8.94,193.14,14.31,270.04,21.46,341.57,28.61,382.7,37.55,14.31,1.79,32.19,8.94,37.56,12.52l100.15,48.28v720.7l-572.27-73.32-14.31-66.17s-16.09-73.32-30.4-137.7c-7.15,0-16.09-1.79-25.04-1.79l1.79,262.89v57.23l35.77-1.79h5.37c16.09,0,37.56,1.79,73.32,5.37,33.98,3.58,76.9,7.15,121.61,10.73,89.42,7.15,185.99,17.88,234.27,23.25,14.31,1.79,21.46,1.79,33.98,5.37l137.7,30.4-1.79,1350.19-205.66-39.34Z"/>
    <path d="M1979.69,1133.8c-3.58-232.48,141.28-393.43,373.76-411.32,237.85-21.46,481.06-35.77,720.7-41.13l119.82-1.79v1985.05l-1.79,119.82-119.82-1.79h0c-30.4,0-302.23,8.94-323.69,12.52l-128.76,12.52v-776.14c-23.25,1.79-44.71,3.58-67.96,5.37v661.68l-1.79,110.88-110.88,5.37c-21.46,0-300.44,28.61-320.11,32.19l-135.91,21.46-3.58-1734.68ZM2551.95,1602.35c23.25-1.79,44.71-3.58,67.96-5.37v-463.18c-16.09,1.79-26.83,1.79-25.04,1.79-21.46,1.79-32.19,5.37-35.77,8.94s-5.37,3.58-7.15,14.31v443.51h0Z"/>
    <path d="M6330.7,3261.92s-209.24-64.38-264.67-80.48c-5.36-1.79-8.94-1.79-10.73-3.58h-1.79c-118.03-33.98-223.54-62.59-295.08-82.26h0l-110.88-26.83c-225.33-51.86-354.09-214.6-352.3-443.51v-1328.73c0-121.61,35.77-218.18,110.88-278.98,50.07-39.34,110.88-57.23,178.83-57.23,35.77,0,75.11,5.37,114.45,14.31,37.56,8.94,751.1,212.81,752.89,212.81l26.83,7.15v783.29l-470.33-144.86-3.58-23.25s-35.77-228.91-51.86-325.48c-28.61-8.94-50.07-14.31-64.38-19.67h-1.79l-12.52-3.58-16.09-5.37h0v1171.36c0,3.58,1.79,19.67,8.94,32.19,8.94,16.09,23.25,28.61,51.86,37.56,0,0,62.59,16.09,119.82,32.19,17.88-78.69,44.71-196.72,44.71-196.72l8.94-39.34,386.28,116.24,1.79,699.24-150.22-46.5Z"/>
    <path d="M60.8,1412.78c3.58-169.89,148.43-273.62,243.21-304.02,259.31-82.26,634.86-141.28,652.74-144.86l112.67-17.88c39.34-23.25,84.05-41.13,130.55-51.86,128.76-26.83,525.77-101.93,543.65-105.51h0l137.7-25.04v2010.09l-1.79,103.72-103.72,12.52c-21.46,1.79-300.44,50.07-320.11,55.44l-144.86,32.19v-1627.38h-3.58c-41.13,12.52-48.28,21.46-57.23,66.17v1237.53l-566.9,134.13v-1296.54c-3.58,1.79-7.15,1.79-8.94,1.79-19.67,5.37-41.13,16.09-55.44,26.83-14.31,12.52-19.67,21.46-19.67,39.34v1496.84l-1.79,91.21-87.63,21.46c-19.67,5.37-270.04,82.26-287.92,89.42l-159.16,59.02v-1904.58h-1.79Z"/>
    <path d="M5046.68,2938.23c-19.67-5.37-296.86-50.07-316.54-51.86l-71.53-7.15-33.98-3.58V779.71l126.97,10.73c32.19,3.58,321.9,51.86,352.3,59.02l89.42,23.25v1954.65l-1.79,144.86-144.86-33.98Z"/>
    <path d="M4372.48,2839.87c-55.44-10.73-430.99-39.34-600.88-50.07l-92.99-3.58c-118.03-5.37-214.6-41.13-280.77-109.09s-100.15-166.32-100.15-282.56V1012.2c0-100.15,28.61-184.2,89.42-243.21,76.9-73.32,177.04-82.26,243.21-82.26,17.88,0,33.98,0,46.5,1.79h26.83c50.07,0,141.28,7.15,339.78,21.46,270.04,21.46,343.36,28.61,375.55,35.77,10.73,1.79,19.67,5.37,25.04,8.94l67.96,32.19v620.55l-468.54-60.8-5.37-26.83s-25.04-110.88-39.34-178.83c-8.94,0-17.88-1.79-25.04-1.79-3.58,0-75.11-5.37-75.11-5.37h-10.73c-7.15,0-12.52,0-17.88,1.79v32.19l1.79,291.5v116.24l96.57-3.58h3.58c23.25,0,125.18,8.94,228.91,17.88,103.72,8.94,200.29,19.67,221.75,23.25l91.21,19.67-1.79,1235.74-139.49-28.61ZM3871.74,2328.41c0,1.79,1.79,16.09,5.37,23.25,3.58,5.37,8.94,10.73,35.77,12.52,0,0,12.52,0,28.61,1.79v-393.43c-23.25-1.79-51.86-3.58-51.86-3.58l-19.67-1.79,1.79,361.24Z"/>
    <path class="cls-2" d="M3074.15,763.62h0v-19.67c-237.85,5.37-477.49,17.88-715.33,39.34-202.08,17.88-316.54,143.07-314.75,348.73v1657.79l62.59-10.73c17.88-3.58,311.17-32.19,327.27-33.98h50.07v-772.56c48.28-3.58,143.07-10.73,196.72-14.31v776.14l59.02-7.15c16.09-1.79,287.92-12.52,327.27-12.52h1.79l35.77,1.79h19.67V743.95l-53.65,1.79,3.58,17.88ZM2682.5,1067.64v590.15c-48.28,3.58-143.07,8.94-196.72,12.52v-515.04c5.37-35.77,17.88-75.11,101.93-82.26,0,0,51.86-3.58,94.78-5.36"/>
    <path class="cls-2" d="M6416.54,2657.46l-273.61-82.26-3.58,19.67s-33.98,150.22-48.29,216.39c-109.09-32.19-157.37-46.5-184.2-51.86h0c-55.44-16.09-80.48-46.5-92.99-69.74-14.31-26.83-16.09-55.44-16.09-62.59v-1180.3c0-5.37,1.79-30.4,10.73-42.92,5.36-8.94,14.31-12.52,32.19-12.52,8.94,0,21.46,1.79,35.77,5.37h5.37c3.58,0,50.07,14.31,130.55,37.56,10.73,67.96,51.86,336.21,51.86,336.21l1.79,12.52,348.73,107.3v-645.59l-14.31-3.58s-681.36-194.93-717.12-202.08c-35.77-8.94-69.74-14.31-100.15-14.31-55.44,0-101.94,14.31-139.49,42.92-59.01,46.5-87.63,125.18-87.63,228.91v1328.73c-1.79,198.51,103.72,332.63,300.44,379.13l3.58,1.79h7.15c23.25,3.58,211.02,55.44,400.59,109.09l277.19,84.05,67.96,21.46,3.58-563.33Z"/>
    <path class="cls-2" d="M1212.49,958.55c-71.53,14.31-135.91,51.86-185.99,101.93v-42.92l-60.8,8.94c-16.1,1.79-389.86,60.8-642.01,143.07-82.26,26.83-196.72,116.24-198.51,243.21v1815.16l71.53-28.61c14.31-5.37,278.98-85.84,295.08-91.21l25.04-5.37,14.31-3.58v-1537.97c0-78.69,73.32-112.67,121.61-128.76,16.1-5.37,55.44-12.52,91.21-17.88v1292.97l438.14-103.72v-1192.82c10.73-71.53,41.13-105.51,107.3-123.39h1.79c10.73-1.79,46.5-7.15,80.48-12.52v1623.81l66.17-16.09c16.1-3.58,311.17-53.65,329.05-55.44l30.4-1.79,17.88-1.79V842.31l-62.59,10.73c1.79,0-411.32,76.9-540.08,105.51"/>
    <path class="cls-2" d="M4746.24,853.04l-37.56-3.58-19.67-1.79v1968.96l17.88,1.79,30.4,3.58c16.09,1.79,309.38,50.07,325.48,53.65l66.17,16.09V919.2l-39.34-10.73c-26.83-5.37-318.32-53.65-343.36-55.44"/>
    <path class="cls-2" d="M3971.89,1632.75h-3.58l-32.19,1.79h-17.88v273.62l17.88,1.79s41.13,3.58,69.74,5.37v522.19c-42.92-3.58-96.57-7.15-98.36-7.15-44.71-3.58-71.53-19.67-87.63-44.71-12.52-21.46-14.31-46.5-14.31-57.23v-872.71l-1.79-289.71v-30.4c0-16.09,3.58-33.98,14.31-46.5s32.19-21.46,67.96-21.46h21.46c8.94,0,59.02,3.58,143.07,10.73,12.52,53.65,42.92,194.93,42.92,194.93l3.58,12.52,350.51,44.71v-504.31l-30.4-16.1c-14.31-5.37-28.61-10.73-379.13-37.55-211.02-16.1-298.65-21.46-338-21.46h-26.83c-12.52,0-26.83-1.79-44.71-1.79-59.02,0-137.7,8.94-196.72,64.38-48.28,44.71-69.74,112.67-69.74,196.72v1384.17c-1.79,202.08,114.45,321.9,318.32,327.27h8.94c51.86,0,615.19,39.34,693.87,53.65l62.59,12.52,1.79-1106.98-41.13-8.94c-28.61-5.37-395.22-39.34-434.57-39.34"/>
    <path class="cls-4" d="M3971.89,1859.87c17.88,1.79,87.63,5.37,87.63,5.37v627.71c-51.86-3.58-103.72-7.15-153.8-10.73-75.11-5.37-112.67-41.13-128.76-71.53-19.67-33.98-21.46-69.74-21.46-82.26v-872.71c0-166.32-1.79-291.5-1.79-300.44v-19.67c0-21.46,5.37-53.65,28.61-80.48,25.04-28.61,67.96-42.92,125.18-39.34,0-1.79,87.63,5.37,189.56,14.31l46.5,209.24,253.94,33.98v-411.32c-21.46-8.94-709.97-62.59-709.97-55.44h-12.52c-55.44-1.79-144.86-5.37-202.08,48.28-35.77,33.98-53.65,87.63-53.65,159.16v1380.59c0,178.83,89.42,268.25,268.25,275.4,0-5.37,620.55,37.56,709.97,55.44,0-21.46,1.79-978.22,1.79-999.68-21.46-3.58-402.38-39.34-423.84-39.34v173.47h-3.58ZM2433.92,1153.48c3.58-35.77,23.25-123.4,150.22-132.34,50.07-3.58,100.15-7.15,150.22-8.94v697.45c-100.15,5.37-202.08,12.52-302.23,19.67v-575.84h1.79ZM2097.72,1133.8v1595.19c21.46-3.58,314.75-33.98,336.21-33.98v-770.77c100.15-8.94,202.08-16.09,302.23-21.46v772.56c21.46-1.79,318.32-12.52,339.78-12.52V797.6c-237.85,5.37-475.7,17.88-711.76,39.34-177.04,17.88-266.46,119.82-266.46,296.86M4740.87,2770.13c21.46,1.79,312.96,50.07,332.63,55.44V962.12c-19.67-5.37-312.96-53.65-332.63-55.44v1863.44ZM974.64,1276.87v-196.72s-382.7,60.8-634.86,141.28c-66.17,21.46-160.95,96.57-160.95,193.14v1738.26c19.67-7.15,280.77-87.63,302.23-92.99v-1496.84c0-105.51,85.84-157.37,159.16-178.83,41.13-12.52,160.95-30.4,160.95-30.4v1287.6l332.63-78.69v-1155.26c10.73-89.42,59.02-150.22,148.43-169.89,84.05-14.31,146.64-23.25,146.64-23.25v1616.65c19.67-5.37,316.54-55.44,336.21-57.23V904.9s-411.32,76.9-541.87,103.72c-123.4,26.82-221.75,126.97-248.58,268.25M6362.89,2696.81l-182.41-53.65-53.65,236.06c-118.03-35.77-237.85-69.74-237.85-67.96-73.32-19.67-109.09-64.38-126.97-96.57-19.67-37.56-21.46-73.32-21.46-87.63v-5.37h0v-1174.94c0-14.31,1.79-48.28,21.46-75.11,17.88-23.25,53.65-48.28,125.18-26.83,0-1.79,76.9,21.46,169.89,48.28l53.65,348.73,250.37,76.9v-532.92s-658.11-189.56-688.51-196.72c-173.47-42.92-262.89,28.61-262.89,207.45v1328.73c0,178.83,89.42,286.13,262.89,329.05,0-3.58,219.96,57.23,411.32,110.88l278.98,84.05v-452.45Z"/>
    <path class="cls-4" d="M3971.89,1859.87c17.88,1.79,87.63,5.37,87.63,5.37v627.71c-51.86-3.58-103.72-7.15-153.8-10.73-75.11-5.37-112.67-41.13-130.55-71.53-19.67-33.98-21.46-69.74-21.46-82.26v-872.71c0-166.32-1.79-291.5-1.79-300.44v-19.67c0-21.46,3.58-53.65,26.83-80.48,25.04-28.61,67.96-42.92,125.18-39.34,0-1.79,87.63,5.37,189.56,14.31l46.5,209.24,253.94,33.98v-411.32c-21.46-8.94-709.97-62.59-709.97-55.44h-12.52c-53.65-1.79-144.86-5.37-202.08,48.28-35.77,33.98-53.65,87.63-53.65,159.16v1380.59c0,177.04,89.42,268.25,268.25,275.4,0-5.37,620.55,37.56,709.97,55.44,0-21.46,1.79-978.22,1.79-999.68-21.46-3.58-402.38-39.34-423.84-39.34v173.47ZM4740.87,2770.13c21.46,1.79,312.96,50.07,332.63,55.44V960.34c-19.67-5.37-312.96-53.65-332.63-55.44v1865.23ZM974.64,1276.87v-196.72s-382.7,60.8-634.86,141.28c-66.17,21.46-160.95,96.57-160.95,193.14v1738.26c19.67-7.15,280.77-87.63,302.23-92.99v-1496.84c0-103.72,85.84-157.37,159.16-178.83,41.13-12.52,160.95-30.4,160.95-30.4v1287.6l332.63-78.69v-1155.26c10.73-89.42,59.02-148.43,148.43-169.89,84.05-14.31,146.64-23.25,146.64-23.25v1616.65c19.67-5.37,316.54-55.44,336.21-57.23V904.9s-413.11,76.9-541.87,103.72c-123.4,26.82-221.75,126.97-248.58,268.25"/>
    <path d="M2249.72,128.76c-8.94-10.73-21.46-19.67-35.77-23.25h0c-10.73-3.58-19.67-3.58-30.4-3.58-16.09,0-30.4,1.79-42.92,3.58-35.77,7.15-71.53,14.31-107.3,19.67-26.83,5.37-50.07,14.31-67.96,25.04-12.52,8.94-25.04,19.67-32.19,32.19-8.94,16.1-14.31,33.98-14.31,51.86v346.94c0,17.88,3.58,35.77,14.31,50.07,8.94,10.73,21.46,17.88,35.77,21.46,8.94,1.79,17.88,1.79,25.04,1.79,16.1,0,32.19-3.58,46.5-5.37,35.77-7.15,71.53-14.31,107.3-19.67,26.83-5.37,50.07-12.52,67.96-23.25,14.31-8.94,25.04-17.88,32.19-30.4,10.73-16.1,14.31-33.98,14.31-51.86V178.83c1.79-19.67-1.79-37.55-12.52-50.07M2133.48,531.14s0,3.58-5.37,8.94h0c-3.58,3.58-10.73,7.15-21.46,8.94-8.94,1.79-28.61,5.37-42.92,8.94h-7.15c-5.37,0-5.37-1.79-5.37-1.79,0,0,0-3.58-1.79-3.58h0V227.12h0s0-3.58,3.58-8.94c3.58-3.58,10.73-7.15,23.25-10.73,12.52-1.79,25.04-5.37,37.56-7.15,3.58,0,7.15-1.79,8.94-1.79,5.37,0,7.15,1.79,8.94,1.79s1.79,3.58,1.79,3.58v327.27h0Z"/>
    <path d="M3880.69,60.8c-8.94-12.52-19.67-21.46-33.98-28.61-25.04-12.52-51.86-16.1-69.74-16.1-71.53-5.37-143.07-8.94-212.81-10.73h-21.46v525.77h19.67c30.4,1.79,62.59,1.79,92.99,3.58h21.46V96.57c14.31,0,28.61,1.79,42.92,1.79,50.07,5.37,42.92,21.46,44.71,26.83v413.11l17.88,1.79c30.4,1.79,60.8,3.58,91.21,7.15l21.46,1.79V110.88c1.79-17.88-3.58-35.77-14.31-50.07"/>
    <path d="M4304.52,109.09c-8.94-12.52-19.67-23.25-32.19-30.4h0c-19.67-10.73-41.13-17.88-69.74-21.46-28.61-5.37-173.47-21.46-212.81-25.04l-21.46-1.79v527.56l17.88,1.79c69.74,7.15,141.28,16.1,211.02,25.04,12.52,1.79,23.25,1.79,32.19,1.79,14.31,0,26.83-1.79,37.56-5.37,14.31-3.58,26.83-12.52,35.77-23.25,10.73-14.31,16.09-32.19,16.09-50.07V160.95c0-17.88-5.37-35.77-14.31-51.86M4182.91,486.43c-3.58,1.79-10.73,3.58-19.67,3.58-5.37,0-12.52,0-16.09-1.79-16.09-1.79-32.19-3.58-48.28-5.37V134.13c14.31,1.79,28.61,3.58,42.92,5.37,14.31,1.79,26.83,5.37,35.77,10.73,7.15,5.37,10.73,8.94,10.73,21.46v302.23c-1.79,10.73-3.58,10.73-5.37,12.52"/>
    <path d="M2684.29,540.08v-177.05c0-17.88-10.73-35.77-26.83-46.5h0c-1.79-1.79-3.58-3.58-7.15-3.58,14.31-10.73,30.4-26.83,30.4-55.44V123.4c0-17.88-5.37-35.77-16.09-50.07-8.94-10.73-21.46-19.67-35.77-23.25-12.52-3.58-26.83-5.37-42.92-5.37-8.94,0-17.88,0-28.61,1.79-69.74,8.94-139.49,17.88-209.24,26.83l-17.88,1.79v527.56l23.25-3.58c30.4-5.37,60.8-8.94,91.21-12.52l17.88-1.79v-205.66c16.09-1.79,30.4-3.58,46.5-5.37h16.1c12.52,0,17.88,1.79,21.46,3.58s3.58,5.37,3.58,12.52v182.41l23.25-1.79c30.4-3.58,60.8-7.15,91.21-8.94l17.88-1.79,1.79-19.67ZM2550.16,255.73h0c0,3.58,0,8.94-7.15,16.1h0c-7.15,5.37-19.67,10.73-37.56,14.31-12.52,1.79-26.83,3.58-39.34,5.37v-146.64c14.31-1.79,30.4-3.58,44.71-5.37,7.15-1.79,14.31-1.79,19.67-1.79,12.52,0,17.88,1.79,19.67,3.58s0,0,1.79,5.37v1.79h0v85.84c-1.79,10.73-1.79,19.67-1.79,21.46"/>
    <path d="M3050.9,420.26v-67.96l-21.46,1.79-80.48,5.37-30.4,92.99c-12.52,0-23.25,1.79-35.77,1.79V14.31l-21.46,1.79c-30.4,1.79-62.59,5.37-92.99,7.15l-17.88,1.79v527.56l21.46-1.79c85.84-7.15,173.47-12.52,259.31-16.1h19.67v-114.45h0Z"/>
    <path d="M3451.49,1.79c-25.04,0-96.57-1.79-152.01-1.79h-62.59c-28.61,0-51.86,3.58-71.53,12.52-14.31,5.37-26.83,16.1-35.77,26.83-10.73,14.31-16.09,32.19-16.09,51.86v438.14h21.46c30.4,0,60.8-1.79,91.21-1.79h19.67v-196.72h89.42v194.93h19.67c30.4,0,62.59,0,92.99,1.79h21.46V1.79h-17.88ZM3337.03,243.21h-89.42V105.51c0-1.79,0-5.37,5.37-8.94,5.37-5.37,17.88-8.94,39.34-8.94h44.71v155.59Z"/>
    <path d="M4712.26,184.2h0c-7.15-12.52-17.88-23.25-30.4-32.19-23.25-16.1-50.07-21.46-69.74-26.83-35.77-7.15-71.53-14.31-107.3-21.46-14.31-1.79-26.83-3.58-39.34-3.58-10.73,0-21.46,1.79-32.19,3.58-14.31,3.58-26.83,10.73-35.77,21.46-12.52,16.1-17.88,33.98-17.88,51.86v346.94c0,17.88,3.58,35.77,14.31,51.86,7.15,12.52,19.67,23.25,32.19,30.4,23.25,14.31,50.07,19.67,69.74,23.25,35.77,7.15,71.53,12.52,105.51,21.46,16.09,3.58,30.4,5.37,44.71,5.37,8.94,0,17.88,0,25.04-1.79,14.31-3.58,28.61-10.73,37.56-21.46,10.73-14.31,16.09-30.4,16.09-50.07V236.06c0-17.88-3.58-35.77-12.52-51.86M4596.02,554.38s0,1.79,0,0v1.79h0c-1.79,0-3.58,1.79-8.94,1.79-3.58,0-7.15,0-10.73-1.79-8.94-1.79-26.83-5.37-42.92-7.15-10.73-1.79-17.88-7.15-19.67-12.52-1.79-3.58-1.79-7.15-1.79-7.15h0V202.08h0c1.79,0,3.58-1.79,8.94-1.79,3.58,0,7.15,0,10.73,1.79,12.52,1.79,25.04,5.37,37.56,7.15,10.73,1.79,17.88,5.37,21.46,8.94,7.15,5.37,5.36,10.73,5.36,10.73v325.48Z"/>
    <polygon class="cls-2" points="2526.92 3049.11 2593.08 3016.92 2648.52 3065.2 2637.79 2993.67 2700.38 2956.12 2628.85 2943.6 2612.76 2872.06 2578.78 2936.44 2505.46 2929.29 2557.32 2982.94 2526.92 3049.11"/>
    <path d="M4749.82,2639.58c64.38-28.61,185.99-80.48,185.99-80.48l8.94-3.58-8.94-3.58s-194.93-64.38-236.06-76.9c-7.15-44.71-37.56-255.73-37.56-255.73l-1.79-10.73-71.53,114.45s-41.13,66.17-62.59,100.15c-46.5-12.52-246.79-62.59-246.79-62.59l-10.73-3.58,7.15,8.94s82.26,105.51,130.55,169.89c-202.08-44.71-436.35-67.96-702.82-67.96-87.63,0-178.83,1.79-275.4,8.94-364.82,21.46-724.28,89.42-1067.64,212.81l39.34-118.03-7.15,1.79c-538.29,168.1-1128.44,674.2-1389.54,1173.15l5.37,3.58c368.4-345.15,867.34-622.34,1314.43-722.49l-118.03,273.62,8.94-3.58c207.45-100.15,481.06-144.86,756.47-144.86s566.9,46.5,786.87,126.97l-84.05,184.2c-200.29-91.21-490-153.8-731.43-153.8-42.92,0-84.05,1.79-123.39,5.37v7.15c284.35,80.47,577.63,171.68,811.9,357.67-1.79,19.67-1.79,39.34-1.79,59.01,0,491.79,423.84,937.09,922.78,937.09h10.73c549.02-7.15,956.76-509.68,956.76-1035.45-1.79-384.49-221.75-781.5-768.98-1001.47"/>
    <path class="cls-3" d="M4449.38,3540.9c-202.08,0-405.95-75.11-609.82-148.43-53.65,112.67-80.48,232.48-80.48,354.09,0,64.38,7.15,128.76,23.25,194.93h50.07c393.43,0,811.9-109.09,1148.11-309.38-39.34-71.53-87.63-139.49-137.7-205.66-130.55,82.26-261.1,114.45-393.43,114.45"/>
    <path class="cls-3" d="M3818.09,4016.6h-12.52c123.39,318.32,405.95,529.35,749.31,534.71,110.88-271.83,232.48-568.69,511.46-706.39-14.31-48.29-32.19-96.57-51.86-143.07-359.46,209.23-779.71,314.75-1196.4,314.75"/>
    <path class="cls-3" d="M4669.34,3018.71c-121.61-46.5-200.29-60.8-207.45-62.59-33.98,5.37-80.48,8.94-118.03,16.09,207.45,82.26,361.24,182.41,515.04,355.88,78.69-62.59,148.43-134.13,196.72-219.97-141.28-137.7-407.74-305.81-1073-357.67,280.77,66.17,538.29,157.37,688.51,262.89l-1.79,5.37Z"/>
    <path class="cls-3" d="M2805.9,2925.71c41.13,0,85.84-1.79,132.34-1.79,472.12,0,1199.97,55.44,1482.53,391.65l-5.36,5.37c-98.36-53.65-293.29-144.86-414.89-144.86h-10.73c-41.13,46.5-78.69,96.57-112.67,150.22,189.56,69.74,380.92,139.49,568.69,139.49,119.82,0,237.85-26.83,354.09-98.36-327.26-357.67-881.65-513.25-1403.84-513.25-205.66,1.79-407.74,25.04-590.15,71.53"/>
    <path class="cls-3" d="M5039.53,3594.55c91.21-62.59,169.89-126.97,241.43-211.02-44.71-85.84-123.39-182.41-178.83-230.69-51.86,91.21-118.03,168.1-200.29,234.27,50.07,62.59,100.15,135.91,137.7,207.45"/>
    <path class="cls-3" d="M4635.36,4547.73c166.31-19.67,318.32-76.9,447.08-185.99,19.67-73.32,28.61-150.22,28.61-225.33s-7.15-144.86-21.46-216.39c-250.37,119.82-354.09,384.49-454.24,627.71"/>
    <path class="cls-3" d="M5182.59,4184.7c0,25.04,0,50.07-1.79,75.11,96.57-132.34,150.22-246.79,178.83-414.89-71.53,7.15-141.28,17.88-209.24,41.13,23.25,100.15,32.19,198.51,32.19,298.65"/>
    <path class="cls-3" d="M5075.29,3662.51c21.46,50.07,41.13,101.94,59.01,153.8,78.69-25.04,153.8-39.34,234.27-42.92v-17.88c0-107.3-16.09-191.35-51.86-293.29-75.11,76.9-153.8,141.28-241.43,200.29"/>
    <path class="cls-3" d="M5366.79,3773.39c-80.48,5.36-157.37,17.88-234.27,42.92-17.88-51.86-35.77-103.72-59.01-153.8,89.42-59.01,168.1-125.18,241.43-200.29,35.77,103.72,50.07,185.99,51.86,293.29v17.88"/>
    <path class="cls-3" d="M5366.79,3773.39c-80.48,5.36-157.37,17.88-234.27,42.92-17.88-51.86-35.77-103.72-59.01-153.8,89.42-59.01,168.1-125.18,241.43-200.29,35.77,103.72,50.07,185.99,51.86,293.29v17.88"/>
    <path class="cls-3" d="M5102.12,3151.04c55.44,50.07,134.13,146.64,178.83,230.69-71.53,84.05-150.22,148.43-241.43,211.02-39.34-69.74-89.42-144.86-135.91-207.45,80.48-66.17,146.64-141.28,198.51-234.27"/>
    <path class="cls-3" d="M5102.12,3151.04c55.44,50.07,134.13,146.64,178.83,230.69-71.53,84.05-150.22,148.43-241.43,211.02-39.34-69.74-89.42-144.86-135.91-207.45,80.48-66.17,146.64-141.28,198.51-234.27"/>
    <path class="cls-3" d="M3984.41,2748.67c665.26,51.86,931.72,221.75,1073,357.67-48.29,87.63-118.03,157.37-196.72,219.97-153.8-171.68-307.59-271.83-515.04-355.88,37.56-7.15,84.05-12.52,118.03-16.09,7.15,1.79,85.84,16.09,207.45,62.59l3.58-7.15c-152.01-105.51-409.53-194.93-690.3-261.1"/>
    <path class="cls-3" d="M3984.41,2748.67c665.26,51.86,931.72,221.75,1073,357.67-48.29,87.63-118.03,157.37-196.72,219.97-153.8-171.68-307.59-271.83-515.04-355.88,37.56-7.15,84.05-12.52,118.03-16.09,7.15,1.79,85.84,16.09,207.45,62.59l3.58-7.15c-152.01-105.51-409.53-194.93-690.3-261.1"/>
    <path class="cls-3" d="M3832.4,3939.7h-50.07c-16.09-64.38-23.25-130.55-23.25-194.93,0-121.61,26.83-239.64,80.48-354.09,203.87,75.11,405.95,148.43,609.82,148.43,132.34,0,262.89-32.19,395.22-114.45,50.07,64.38,98.36,132.34,137.7,205.66-338,200.29-756.47,309.38-1149.9,309.38"/>
    <path class="cls-3" d="M3832.4,3939.7h-50.07c-16.09-64.38-23.25-130.55-23.25-194.93,0-121.61,26.83-239.64,80.48-354.09,203.87,75.11,405.95,148.43,609.82,148.43,132.34,0,262.89-32.19,395.22-114.45,50.07,64.38,98.36,132.34,137.7,205.66-338,200.29-756.47,309.38-1149.9,309.38"/>
    <path class="cls-3" d="M4554.89,4551.31c-343.36-5.36-625.92-216.39-749.31-534.71h12.52c416.68,0,835.15-105.51,1196.4-316.54,19.67,46.5,37.56,94.78,51.86,143.07-278.98,139.49-402.38,436.35-511.46,708.18"/>
    <path class="cls-3" d="M4554.89,4551.31c-343.36-5.36-625.92-216.39-749.31-534.71h12.52c416.68,0,835.15-105.51,1196.4-316.54,19.67,46.5,37.56,94.78,51.86,143.07-278.98,139.49-402.38,436.35-511.46,708.18"/>
    <path class="cls-3" d="M5180.8,4259.81c1.79-25.04,1.79-50.07,1.79-75.11,0-100.15-10.73-198.51-32.19-298.65,66.17-21.46,137.7-33.98,207.45-41.13-26.83,169.89-78.69,284.35-177.05,414.89"/>
    <path class="cls-3" d="M5180.8,4259.81c1.79-25.04,1.79-50.07,1.79-75.11,0-100.15-10.73-198.51-32.19-298.65,66.17-21.46,137.7-33.98,207.45-41.13-26.83,169.89-78.69,284.35-177.05,414.89"/>
    <path class="cls-3" d="M4801.68,3367.43c-116.24,71.53-236.06,98.36-354.09,98.36-189.56,0-380.92-69.74-568.69-139.49,33.98-53.65,69.74-103.72,112.67-150.22h10.73c121.61,0,316.54,89.42,414.89,144.86l5.36-5.37c-282.56-336.21-1010.41-391.65-1482.53-391.65-46.5,0-91.21,0-132.34,1.79,180.62-46.5,384.49-69.74,591.94-69.74,520.4,0,1074.79,155.58,1402.05,511.46"/>
    <path class="cls-3" d="M4801.68,3367.43c-116.24,71.53-236.06,98.36-354.09,98.36-189.56,0-380.92-69.74-568.69-139.49,33.98-53.65,69.74-103.72,112.67-150.22h10.73c121.61,0,316.54,89.42,414.89,144.86l5.36-5.37c-282.56-336.21-1010.41-391.65-1482.53-391.65-46.5,0-91.21,0-132.34,1.79,180.62-46.5,384.49-69.74,591.94-69.74,520.4,0,1074.79,155.58,1402.05,511.46"/>
    <path class="cls-3" d="M5080.66,4361.75c-128.76,109.09-280.77,166.31-447.08,185.99,100.15-243.21,203.87-507.89,454.24-627.71,12.52,71.53,21.46,143.07,21.46,216.39,0,75.11-8.94,152.01-28.61,225.33"/>
    <path class="cls-3" d="M5080.66,4361.75c-128.76,109.09-280.77,166.31-447.08,185.99,100.15-243.21,203.87-507.89,454.24-627.71,12.52,71.53,21.46,143.07,21.46,216.39,0,75.11-8.94,152.01-28.61,225.33"/>
    <polygon class="cls-3" points="4424.34 2711.11 4569.19 2661.04 4678.28 2784.44 4665.76 2621.7 4807.04 2560.89 4653.25 2510.82 4630 2349.87 4549.52 2480.42 4395.73 2441.08 4497.66 2573.41 4424.34 2711.11"/>
    <polygon class="cls-2" points="3655.35 2827.36 3755.5 2777.28 3839.55 2852.39 3823.46 2741.52 3920.03 2686.08 3809.15 2666.41 3785.9 2557.32 3734.04 2657.46 3621.38 2644.95 3700.06 2725.42 3655.35 2827.36"/>
    <polygon class="cls-2" points="2526.92 3049.11 2593.08 3016.92 2646.73 3065.2 2637.79 2993.67 2700.38 2956.12 2627.06 2943.6 2612.76 2872.06 2578.78 2936.44 2505.46 2929.29 2555.53 2982.94 2526.92 3049.11"/>
    <path class="cls-4" d="M5025.22,4047v-12.52l-92.99,155.59,26.83-137.7-7.15-3.58c-135.91,166.31-187.78,284.35-230.69,430.99l-1.79,7.15,7.15-1.79c153.8-53.65,232.48-114.45,264.67-139.49h0c23.25-50.07,33.98-150.22,33.98-271.83,0-10.73,0-17.88,0-26.83"/>
    <path class="cls-4" d="M4714.05,3685.76c-148.43,30.4-323.69,48.29-482.85,48.29-23.25,0-48.28,0-69.74-1.79l341.57-101.94v-7.15c-225.33-10.73-400.59-14.31-620.55-118.03l-3.58-1.79-1.79,3.58c-32.19,59.01-51.86,141.28-51.86,225.33,0,48.29,5.37,94.78,19.67,139.49v1.79h25.04c98.36,0,504.31-10.73,845.88-182.41l-1.79-5.36Z"/>
    <path class="cls-4" d="M4789.16,3962.95c-171.68,128.76-302.23,232.48-556.17,278.98,236.06-121.61,393.43-207.45,541.87-357.67l-5.36-5.36c-262.89,153.8-606.25,218.18-847.67,228.91h-7.15l3.58,5.36c198.51,314.75,450.66,343.36,532.92,343.36h0c17.88,0,26.83-1.79,26.83-1.79h1.79l1.79-1.79c107.3-168.1,175.26-330.84,312.96-486.43l-5.37-3.58Z"/>
    <path class="cls-1" d="M5234.45,3362.07c-23.25,25.04-44.71,46.5-66.17,66.17-25.04-53.65-53.65-103.72-87.63-152.01,17.88-21.46,33.98-42.92,50.07-66.17,42.92,48.28,78.69,103.72,103.72,152.01M5323.87,3696.49c-26.83,3.58-51.86,7.15-75.11,12.52-5.36-39.34-12.52-78.69-23.25-116.24,26.83-21.46,51.86-44.71,76.9-69.74,16.1,57.23,21.46,110.88,21.46,173.47M5239.82,4054.15v-12.52c10.73-55.44,17.88-109.09,19.67-164.53,14.31-3.58,28.61-7.15,44.71-8.94-17.88,66.17-37.56,126.97-64.38,185.99M4612.11,2913.2c-12.52-7.15-25.04-12.52-37.56-17.88,203.87,60.8,341.57,139.49,418.47,198.51-12.52,17.88-25.04,33.98-39.34,50.07-94.78-96.57-209.23-177.05-341.57-230.7"/>
  </g>
</svg>