<?xml version="1.0" encoding="UTF-8" standalone="no"?>
<!DOCTYPE svg PUBLIC "-//W3C//DTD SVG 1.0//EN" "http://www.w3.org/TR/2001/REC-SVG-20010904/DTD/svg10.dtd">
<!-- Created with Inkscape (http://www.inkscape.org/) -->
<svg
   xmlns:svg="http://www.w3.org/2000/svg"
   xmlns="http://www.w3.org/2000/svg"
   version="1.0"
   width="800"
   height="800"
   id="svg2">
  <defs
     id="defs4" />
  <g
     id="layer1">
    <path
       d="M 645.46562,145.54956 C 628.84967,239.71347 464.42199,249.04725 498.30086,154.46864 L 546.46388,92.035094 C 556.85938,78.559438 568.63835,79.330189 577.68065,88.467463 C 585.07728,95.941721 590.43464,100.57122 599.08642,98.278448 C 628.52344,90.477323 639.3522,114.83839 645.46562,145.54956 z"
       id="path4256"
       style="fill:#ffffff;fill-rule:evenodd;stroke:#000000;stroke-width:7.13526201px;stroke-linecap:butt;stroke-linejoin:miter;stroke-opacity:1" />
    <path
       d="M 343.10891,167.17832 C 313.79133,167.17832 285.49067,171.52898 258.82362,179.66503 C 241.74281,237.82027 237.15205,299.3719 242.99226,359.38444 C 266.29674,351.66509 289.31845,340.96127 311.44618,327.49874 C 366.17136,294.2039 415.0407,244.78429 448.35402,187.24625 C 415.72204,174.44459 380.26336,167.17832 343.10891,167.17832 z M 242.32333,185.46243 C 164.92543,214.34041 103.38315,275.4433 73.752764,352.47216 C 121.54917,376.442 175.54691,378.23916 228.72174,363.62101 C 222.62166,304.32191 226.59036,243.52192 242.32333,185.46243 z M 461.50966,192.59769 C 426.99704,253.01931 376.19176,304.62502 318.80442,339.5395 C 294.98656,354.03029 270.00287,365.5105 244.5531,373.65497 C 247.46143,396.79776 251.7722,419.58123 257.70874,441.88591 C 285.26448,434.32953 313.55437,428.7962 342.217,425.83157 L 343.77784,440.1021 C 315.87283,442.98831 288.37388,448.3292 261.49935,455.71048 C 265.65221,469.71707 270.48264,483.52423 275.76987,496.96122 C 281.9682,512.71374 289.0685,527.92833 296.7297,542.67149 C 318.31266,528.62237 342.44376,517.83464 368.75126,510.78579 C 392.25738,504.48756 417.23786,500.8789 443.67151,500.08289 C 498.57328,498.42965 559.06589,508.62537 622.05305,530.63074 C 628.43953,506.77684 631.86403,481.79272 631.86403,455.93346 C 631.86403,338.75597 561.88011,237.83311 461.50966,192.59769 z M 68.847271,365.85078 C 59.526336,394.21266 54.35377,424.46581 54.35377,455.93346 C 54.35377,485.49571 58.796327,514.0257 67.063456,540.88767 C 116.69213,498.64228 177.7273,465.76999 243.88417,445.67652 C 237.9938,423.56805 233.50044,400.80849 230.50555,377.89153 C 175.44823,392.63826 119.1635,390.61106 68.847271,365.85078 z M 247.67478,459.72407 C 181.60867,479.86484 120.53361,512.76868 71.968948,555.1582 C 94.704747,617.21399 138.17405,669.22962 193.93733,702.9919 C 206.77075,635.89617 239.06209,584.9908 284.68895,550.92164 C 276.46777,535.24468 268.97746,519.05085 262.39126,502.31266 C 256.92543,488.42166 251.96328,474.19623 247.67478,459.72407 z M 463.51646,514.35342 C 430.86293,513.64032 400.23745,517.12982 372.31889,524.61036 C 346.96744,531.40306 323.94317,541.55882 303.41901,554.93522 C 344.10934,627.75555 402.3866,685.48831 472.65851,713.91777 C 541.18186,679.41406 594.19992,618.46872 618.03946,544.45531 C 563.66764,525.48371 511.38907,515.39881 463.51646,514.35342 z M 291.15528,563.40835 C 248.1868,595.96405 218.73893,644.91051 207.31595,710.57311 C 247.80921,732.22007 294.0126,744.68858 343.10891,744.68858 C 382.77583,744.68858 420.62818,736.66241 455.04333,722.16791 C 387.04307,691.01136 330.79202,633.86997 291.15528,563.40835 z"
       id="path4202"
       style="opacity:1;fill:#007f2d;fill-opacity:1;fill-rule:evenodd;stroke:none;stroke-width:2;stroke-linecap:round;stroke-linejoin:round;stroke-miterlimit:4;stroke-dasharray:none;stroke-dashoffset:0;stroke-opacity:1" />
    <path
       d="M 487.59796,143.76574 C 524.00129,184.23138 562.37837,201.72241 603.54596,167.84725 C 653.31398,126.89513 683.75337,149.03328 723.95351,180.33396 C 799.62375,239.25239 738.97088,541.322 542.89625,412.22998 L 430.51587,326.60683 C 372.62342,282.49829 361.06708,175.07199 417.13725,84.899832 C 426.50763,69.830372 463.2456,54.201151 470.65172,105.41371 C 472.62476,119.05712 476.66325,131.61082 487.59796,143.76574 z"
       id="path4254"
       style="fill:#ffffff;fill-rule:evenodd;stroke:#000000;stroke-width:7.13526201px;stroke-linecap:butt;stroke-linejoin:miter;stroke-opacity:1" />
    <path
       d="M 470.65172,265.95711 C 452.12123,235.90181 555.37232,249.85182 589.27545,270.41665 C 630.38097,295.35025 651.10355,377.38186 559.84249,341.76927 C 509.99056,322.31569 497.86054,310.0882 470.65172,265.95711 z"
       id="path4232"
       style="fill:#080047;fill-opacity:1;fill-rule:evenodd;stroke:none;stroke-width:1px;stroke-linecap:butt;stroke-linejoin:miter;stroke-opacity:1" />
    <path
       d="M 469.75981,272.20046 L 372.54186,377.44558 L 349.35226,255.25421 L 213.78228,255.25421 C 203.87518,255.25421 188.6947,272.92526 195.94413,286.47099 C 201.77271,297.36196 212.90158,305.63302 205.75511,323.93111 L 124.59151,531.74562 C 113.75183,559.49986 100.15908,589.50714 63.049871,595.07107 C 49.937257,597.03712 43.929081,611.1254 63.049871,611.1254 L 183.45742,611.1254 C 196.27256,611.1254 193.72185,603.55169 183.45742,593.28726 L 166.51117,576.34101 C 160.85462,570.68446 161.30585,562.39692 166.51117,549.58377 L 236.07998,378.33748 L 250.3505,601.31443 C 251.48558,619.05053 267.7858,618.30682 279.78346,602.20633 L 451.92165,371.20222 L 418.02916,517.4751 C 410.29982,550.83316 402.074,587.8484 360.05516,591.50344 C 347.93548,592.55767 345.14588,615.66299 360.05516,615.58493 L 530.40954,614.69303 C 550.2039,614.58942 540.83216,588.42115 530.40954,588.82772 C 502.83624,589.90329 511.15082,562.92721 517.92283,536.20516 L 583.924,275.76809"
       id="path4230"
       style="fill:#080047;fill-opacity:1;fill-rule:evenodd;stroke:#ffffff;stroke-width:7.13526201px;stroke-linecap:butt;stroke-linejoin:miter;stroke-opacity:1" />
  </g>
</svg>
