<?xml version="1.0" encoding="UTF-8"?>
<svg id="Calque_2" data-name="Calque 2" xmlns="http://www.w3.org/2000/svg" viewBox="0 0 11391.4 11391.35">
  <defs>
    <style>
      .cls-1 {
        fill: #003da6;
      }

      .cls-1, .cls-2, .cls-3 {
        stroke-width: 0px;
      }

      .cls-2 {
        fill: #db0032;
      }

      .cls-3 {
        fill: #fff;
      }
    </style>
  </defs>
  <g id="Layer_1" data-name="Layer 1">
    <g>
      <path class="cls-3" d="M11391.35,5695.68c0,3145.94-2549.74,5695.68-5695.68,5695.68S0,8841.62,0,5695.68C12.69,2549.74,2562.42,0,5708.36,0h0c3145.94,0,5695.68,2549.74,5682.99,5695.68h0"/>
      <path class="cls-1" d="M11188.39,5695.68c0,3031.77-2460.94,5480.03-5480.03,5480.03S215.65,8727.45,215.65,5695.68,2676.59,215.65,5708.36,215.65h0c3031.77,0,5480.03,2448.25,5480.03,5480.03"/>
      <polygon class="cls-3" points="1065.56 6634.39 1179.73 6989.57 1560.29 6989.57 1243.15 7217.91 1357.32 7560.41 1065.56 7344.76 761.12 7560.41 875.28 7217.91 570.84 6989.57 951.39 6989.57 1065.56 6634.39"/>
      <polygon class="cls-3" points="10351.16 6634.39 10452.65 6989.57 10833.2 6989.57 10528.76 7217.91 10642.93 7560.41 10351.16 7344.76 10046.72 7560.41 10160.89 7217.91 9843.75 6989.57 10224.31 6989.57 10351.16 6634.39"/>
      <polygon class="cls-3" points="2397.51 8549.86 2511.68 8905.05 2892.24 8905.05 2575.11 9133.38 2689.27 9488.57 2397.51 9272.92 2093.07 9488.57 2207.23 9133.38 1902.79 8905.05 2283.35 8905.05 2397.51 8549.86"/>
      <polygon class="cls-3" points="9133.38 8549.86 9247.55 8905.05 9628.11 8905.05 9323.66 9133.38 9437.83 9488.57 9133.38 9272.92 8841.62 9488.57 8943.1 9133.38 8638.66 8905.05 9019.21 8905.05 9133.38 8549.86"/>
      <polygon class="cls-3" points="4477.89 9793.01 4592.06 10160.89 4972.62 10160.89 4655.49 10376.53 4769.65 10731.72 4477.89 10516.07 4173.45 10731.72 4287.61 10376.53 3983.17 10160.89 4351.04 10160.89 4477.89 9793.01"/>
      <polygon class="cls-3" points="7002.26 9793.01 7116.43 10160.89 7496.98 10160.89 7179.85 10376.53 7294.02 10731.72 7002.26 10516.07 6697.81 10731.72 6811.98 10376.53 6507.53 10160.89 6888.09 10160.89 7002.26 9793.01"/>
      <path class="cls-3" d="M9818.38,5721.05c0,2270.66-1839.36,4110.02-4110.02,4110.02S1585.66,7991.71,1585.66,5721.05,3425.02,1611.03,5695.68,1611.03h0c2283.35,0,4122.71,1839.36,4122.71,4110.02"/>
      <path class="cls-1" d="M1826.68,6532.9c443.98,2131.12,2537.05,3501.13,4680.86,3057.15,1027.51-202.96,1928.16-824.54,2498.99-1699.82,570.84-875.28,761.12-1940.84,558.15-2968.35-202.96-1027.51-824.54-1928.16-1699.82-2498.99-1826.68-1192.41-4274.93-685-5467.34,1141.67-570.84,875.28-773.8,1940.84-570.84,2968.35"/>
      <path class="cls-3" d="M7053,2638.53c0,177.59-76.11,342.5-215.65,443.98-748.43-532.78-1446.12-799.17-2143.81-811.86-139.54,0-291.76,12.69-431.3,38.06,215.65-88.8,456.67-164.91,685-215.65,608.89-126.85,1243.15-101.48,1839.36,76.11,139.54,126.85,228.33,291.76,266.39,469.35"/>
      <path class="cls-3" d="M6279.2,9031.9c773.8-710.37,1141.67-2245.29,1357.32-3158.63l38.06-139.54c76.11-380.56,253.71-735.74,520.1-1027.51,786.49,1217.78,672.32,2473.62,482.04,3260.11-532.78,723.06-1319.27,1217.78-2194.55,1395.38-253.71,50.74-507.41,76.11-761.12,76.11,190.28-114.17,380.56-253.71,558.15-405.93"/>
      <path class="cls-3" d="M7687.26,3830.95c317.13-266.39,570.84-469.35,748.43-596.21,393.24,431.3,672.32,938.71,837.23,1509.54-152.22-190.28-329.82-380.56-532.78-418.61-177.59-38.06-367.87,12.69-520.1,126.85-164.91-241.02-342.5-443.98-532.78-621.58"/>
      <path class="cls-3" d="M2067.7,5556.14c355.19-964.08,1674.45-1357.32,2169.18-1509.54l25.37-12.69c215.65-50.74,443.98-101.48,672.32-126.85,634.26-114.17,1433.43-241.02,1902.79-596.21,202.96,164.91,405.93,329.82,596.21,507.41-1585.66,1370.01-3095.2,2816.13-4515.95,4338.36-418.61-482.04-710.37-1052.88-837.23-1674.45-50.74-253.71-76.11-507.41-76.11-761.12,38.06-101.48,76.11-164.91,63.43-164.91"/>
      <path class="cls-3" d="M7560.41,3704.09c-202.96-190.28-393.24-355.19-596.21-507.41,164.91-139.54,253.71-355.19,241.02-570.84-12.69-126.85-63.43-241.02-126.85-329.82,215.65,88.8,431.3,202.96,634.26,329.82,215.65,139.54,405.93,304.45,583.52,482.04-164.91,139.54-418.61,342.5-735.74,596.21"/>
      <path class="cls-3" d="M6697.81,3196.68c-443.98,304.45-1192.41,431.3-1788.62,532.78-228.33,38.06-456.67,76.11-685,139.54h-25.37c-482.04,152.22-1674.45,507.41-2169.18,1370.01,76.11-558.15,266.39-1090.93,570.84-1547.6,266.39-405.93,596.21-761.12,989.45-1040.19,887.97-367.87,1864.73-342.5,3107.89,545.47"/>
      <path class="cls-3" d="M8702.08,4477.89c253.71,50.74,532.78,482.04,672.32,735.74,114.17,811.86-38.06,1636.4-456.67,2346.77,25.37-126.85,38.06-253.71,50.74-393.24,76.11-900.65-152.22-1813.99-659.63-2575.11,114.17-101.48,253.7-139.54,393.24-114.17"/>
      <path class="cls-3" d="M7560.41,3932.43c190.28,190.28,367.87,393.24,520.1,608.89-291.76,317.13-494.72,710.37-583.52,1128.99l-38.06,139.54c-215.65,887.97-570.84,2397.51-1306.58,3069.83-241.02,241.02-545.47,405.93-875.28,507.41-862.6-101.48-1661.77-494.72-2257.97-1116.3,1446.12-1509.54,2955.66-2968.35,4541.32-4338.35"/>
      <path class="cls-3" d="M6723.18,6824.66l101.48-25.37c63.43,0,101.48-50.74,101.48-114.17v-12.69c0-76.11-25.37-202.96-101.48-202.96s-101.48,152.22-101.48,241.02v114.17Z"/>
      <path class="cls-3" d="M5518.08,6761.24c0-317.13-12.69-596.21-228.33-596.21-177.59,0-202.96,279.08-202.96,596.21s-12.69,596.21,202.96,596.21c190.28,0,228.33-279.08,228.33-596.21"/>
      <path class="cls-3" d="M6723.18,6824.66l101.48-25.37c63.43,0,101.48-50.74,101.48-114.17v-12.69c0-76.11-25.37-202.96-101.48-202.96s-101.48,152.22-101.48,241.02v114.17Z"/>
      <path class="cls-3" d="M5061.41,6038.18h0c114.17-152.22,304.45-241.02,494.72-228.33,431.3,0,697.69,380.56,697.69,875.28,0,596.21-405.93,951.39-900.65,951.39-773.8,0-1052.88-621.58-1052.88-1344.64,0-824.54,355.19-1509.54,1255.84-1509.54,355.19,0,634.26,228.33,634.26,570.84,0,177.59-139.54,329.82-317.13,329.82h-12.69c-241.02,0-317.13-202.96-355.19-380.56-12.69-76.11,12.69-241.02-114.17-241.02-253.71,0-304.45,507.41-317.13,697.69l-12.69,279.08Z"/>
      <path class="cls-3" d="M5518.08,6761.24c0-317.13-12.69-596.21-228.33-596.21-177.59,0-202.96,279.08-202.96,596.21s-12.69,596.21,202.96,596.21c190.28,0,228.33-279.08,228.33-596.21"/>
      <path class="cls-3" d="M849.91,4807.71c152.22,12.69,202.96,126.85,177.59,317.13l-12.69,139.54,76.11,12.69c101.48,12.69,139.54,12.69,152.22-76.11l88.8,12.69-50.74,380.56-88.8-12.69c12.69-88.8-25.37-88.8-126.85-101.48l-279.08-50.74c-101.48-12.69-139.54-12.69-152.22,76.11l-88.8-12.69,50.74-405.93c12.69-202.96,114.17-291.76,253.7-279.08ZM938.71,5213.64c12.69-126.85-25.37-190.28-114.17-202.96-76.11-12.69-126.85,38.06-139.54,126.85-12.69,63.43,12.69,76.11,88.8,88.8l164.91,25.37c-12.69-12.69-12.69-25.37,0-38.06Z"/>
      <path class="cls-3" d="M1408.06,4401.78c25.37-76.11,0-101.48-101.48-139.54l-266.39-114.17c-88.8-38.06-126.85-50.74-164.91,25.37l-88.8-38.06,152.22-342.5,76.11,38.06c-25.37,76.11,0,101.48,101.48,139.54l76.11,25.37,114.17-253.71-76.11-25.37c-88.8-38.06-126.85-50.74-164.91,25.37l-88.8-38.06,139.54-355.19,88.8,38.06c-25.37,76.11,0,101.48,101.48,139.54l266.39,114.17c88.8,38.06,126.85,50.74,164.91-25.37l88.8,38.06-139.54,355.19-88.8-38.06c25.37-76.11,0-101.48-101.48-139.54l-114.17-50.74-114.17,253.71,114.17,50.74c88.8,38.06,126.85,50.74,164.91-25.37l88.8,38.06-139.54,355.19-88.8-50.74Z"/>
      <path class="cls-3" d="M1775.94,2549.74c-50.74,63.43-25.37,101.48,63.43,152.22l228.33,177.59c76.11,63.43,114.17,76.11,164.91,12.69l76.11,63.43-228.33,304.45-76.11-50.74c50.74-63.43,25.37-88.8-63.43-152.22l-241.02-177.59c-76.11-63.43-114.17-76.11-164.91-12.69l-76.11-63.43,228.33-304.45,88.8,50.74Z"/>
      <path class="cls-3" d="M2613.16,2587.79l-63.43-76.11c63.43-50.74,38.06-88.8-25.37-164.91l-177.59-215.65c-63.43-76.11-88.8-101.48-152.22-50.74l-63.43-76.11,279.08-241.02,63.43,76.11c-63.43,50.74-38.06,88.8,25.37,164.91l215.65,253.71c50.74,63.43,76.11,63.43,126.85,12.69,88.8-88.8,114.17-215.65,88.8-329.82l76.11-12.69,88.8,279.08-482.04,380.56Z"/>
      <path class="cls-3" d="M3513.81,1902.79l-38.06-88.8c76.11-38.06,63.43-88.8,63.43-177.59l-25.37-583.52,164.91-63.43,431.3,418.61c50.74,50.74,76.11,76.11,139.54,50.74l38.06,88.8-342.5,152.22-38.06-76.11h12.69c50.74-25.37,63.43-38.06,50.74-76.11,0-12.69-12.69-25.37-25.37-25.37l-76.11-76.11-228.33,101.48,12.69,114.17v25.37c12.69,38.06,50.74,38.06,101.48,12.69l38.06,88.8-279.08,114.17ZM3792.89,1370.01l-164.91-177.59,12.69,241.02,152.22-63.43Z"/>
      <path class="cls-3" d="M4680.86,1344.64c76.11-12.69,88.8-50.74,63.43-152.22l-38.06-291.76c-12.69-101.48-25.37-139.54-101.48-126.85l-12.69-88.8,380.56-50.74c291.76-38.06,469.35,76.11,507.41,317.13,38.06,241.02-101.48,405.93-393.24,443.98l-380.56,50.74-25.37-101.48ZM4947.25,1205.1c12.69,76.11,25.37,101.48,101.48,88.8,152.22-25.37,228.33-139.54,202.96-317.13-25.37-177.59-139.54-279.08-291.76-253.71-76.11,12.69-88.8,38.06-76.11,114.17l63.43,367.87Z"/>
      <path class="cls-3" d="M6000.12,1230.47c88.8,12.69,88.8-25.37,114.17-126.85l38.06-291.76c12.69-101.48,12.69-139.54-63.43-152.22l12.69-88.8,621.58,88.8,63.43,241.02-63.43,25.37c-38.06-114.17-139.54-190.28-266.39-215.65-76.11-12.69-88.8,12.69-101.48,88.8l-12.69,101.48h38.06c76.11,12.69,101.48-12.69,126.85-101.48l76.11,12.69-50.74,342.5-76.11-12.69c0-88.8-25.37-139.54-88.8-139.54h-38.06l-25.37,177.59c-12.69,76.11,0,101.48,76.11,114.17,139.54,12.69,266.39-50.74,342.5-164.91l63.43,50.74-152.22,241.02-646.95-88.8,12.69-101.48Z"/>
      <path class="cls-3" d="M7192.54,1560.29l38.06-88.8c76.11,25.37,101.48,0,139.54-88.8l114.17-266.39c38.06-88.8,50.74-126.85-25.37-164.91l38.06-88.8,342.5,152.22-38.06,88.8c-76.11-25.37-101.48,0-139.54,88.8l-126.85,304.45c-25.37,76.11-25.37,88.8,38.06,126.85,114.17,38.06,241.02,12.69,342.5-76.11l50.74,63.43-215.65,202.96-558.15-253.71Z"/>
      <path class="cls-3" d="M9120.7,2118.44c-88.8,114.17-215.65,114.17-355.19-12.69l-101.48-88.8-50.74,63.43c-63.43,76.11-88.8,114.17-25.37,164.91l-63.43,76.11-291.76-241.02,63.43-76.11c63.43,50.74,88.8,25.37,152.22-50.74l177.59-228.33c63.43-76.11,88.8-114.17,25.37-164.91l63.43-76.11,317.13,253.71c152.22,139.54,190.28,266.39,88.8,380.56ZM8740.14,1978.9c101.48,76.11,177.59,88.8,228.33,12.69,50.74-50.74,38.06-139.54-12.69-177.59l-12.69-12.69c-50.74-38.06-76.11-25.37-114.17,25.37l-101.48,126.85,12.69,25.37Z"/>
      <path class="cls-3" d="M9184.12,2803.44c50.74,63.43,88.8,50.74,164.91-12.69l241.02-164.91c88.8-63.43,114.17-88.8,63.43-152.22l76.11-50.74,215.65,304.45-76.11,50.74c-50.74-63.43-88.8-50.74-164.91,12.69l-63.43,50.74,164.91,228.33,63.43-50.74c88.8-63.43,114.17-88.8,63.43-152.22l76.11-50.74,215.65,304.45-76.11,63.43c-50.74-63.43-88.8-50.74-164.91,12.69l-241.02,164.91c-88.8,63.43-114.17,88.8-63.43,152.22l-76.11,50.74-215.65-304.45,76.11-50.74c50.74,63.43,88.8,50.74,164.91-12.69l101.48-76.11-164.91-228.33-101.48,76.11c-88.8,63.43-114.17,88.8-63.43,152.22l-76.11,50.74-215.65-304.45,76.11-63.43Z"/>
      <path class="cls-3" d="M10554.13,4110.02c-25.37-76.11-63.43-63.43-164.91-38.06l-279.08,101.48c-101.48,38.06-126.85,50.74-101.48,139.54l-88.8,38.06-139.54-355.19,88.8-38.06c25.37,76.11,63.43,63.43,164.91,25.37l279.08-101.48c101.48-38.06,126.85-50.74,101.48-126.85l88.8-38.06,139.54,355.19-88.8,38.06Z"/>
      <path class="cls-3" d="M10059.4,4756.97l88.8-12.69c25.37,76.11,63.43,88.8,152.22,114.17l558.15,152.22,25.37,164.91-532.78,291.76c-63.43,38.06-88.8,50.74-88.8,126.85l-88.8,12.69-50.74-380.56,88.8-12.69v12.69c0,50.74,25.37,76.11,50.74,76.11,12.69,0,25.37,0,38.06-12.69l101.48-50.74-25.37-241.02-101.48-25.37h-25.37c-38.06,0-50.74,38.06-38.06,88.8l-88.8,12.69-63.43-317.13ZM10490.7,5175.58l215.65-101.48-228.33-63.43,12.69,164.91Z"/>
      <path class="cls-3" d="M8017.08,6203.09c-76.11,0-152.22,38.06-190.28,88.8l-12.69-38.06-38.06-76.11-596.21,177.59v329.82h126.85c12.69,50.74,12.69,88.8,12.69,139.54v380.56h-114.17v355.19h824.54v-355.19l-101.48-12.69v-114.17c0-88.8,12.69-164.91,25.37-253.71,38.06,12.69,76.11,12.69,101.48,12.69,152.22,0,253.71-126.85,253.71-317.13,12.69-152.22-101.48-304.45-253.71-317.13h-38.06Z"/>
      <path class="cls-3" d="M9044.58,6583.64c0-12.69-12.69-38.06-12.69-50.74,0-101.48-38.06-317.13-393.24-317.13-202.96,0-583.52,152.22-583.52,507.41,0,101.48,25.37,215.65,101.48,291.76-88.8,50.74-126.85,139.54-126.85,241.02,0,126.85,63.43,342.5,494.72,342.5,367.87,0,583.52-190.28,583.52-520.1-12.69-164.91-25.37-342.5-63.43-494.72Z"/>
      <path class="cls-3" d="M4718.91,4680.86c-25.37-25.37-50.74-38.06-88.8-38.06-63.43,12.69-114.17,38.06-152.22,88.8-177.59,190.28-431.3,291.76-685,279.08-393.24-12.69-761.12-177.59-1027.51-443.98-25.37-25.37-50.74-38.06-88.8-38.06-139.54,0-190.28,228.33-190.28,241.02v1167.04l88.8,12.69c317.13,50.74,634.26,38.06,938.71-38.06-304.45,266.39-976.76,1002.13-964.08,1699.82,0,126.85,76.11,139.54,114.17,139.54s63.43-12.69,88.8-38.06l12.69-12.69c126.85-76.11,279.08-126.85,431.3-114.17,139.54,0,266.39,25.37,393.24,76.11,25.37,12.69,50.74,25.37,76.11,25.37,38.06,0,63.43-12.69,88.8-38.06,25.37-38.06,38.06-76.11,25.37-126.85-50.74-507.41,63.43-1052.88,279.08-1382.69l38.06-50.74c177.59-266.39,570.84-837.23,634.26-1306.58,12.69-25.37,12.69-76.11-12.69-101.48Z"/>
      <path class="cls-3" d="M7433.56,6913.46v-88.8c0-50.74-12.69-114.17-25.37-164.91v-101.48l-25.37,25.37c-76.11-228.33-291.76-393.24-545.47-393.24-380.56,0-646.95,304.45-646.95,735.74,0,329.82,190.28,659.63,621.58,659.63,241.02,0,469.35-114.17,596.21-329.82l12.69-25.37,12.69-317.13h0ZM6976.89,7129.11c-38.06,0-76.11-25.37-88.8-63.43l215.65-63.43c-38.06,50.74-76.11,88.8-126.85,126.85Z"/>
      <path class="cls-3" d="M6025.49,5885.96l-63.43-101.48c202.96-38.06,355.19-215.65,355.19-431.3,0-380.56-317.13-672.32-748.43-672.32-849.91,0-1370.01,608.89-1370.01,1623.71,0,926.02,418.61,1446.12,1154.36,1446.12,596.21,0,1014.82-431.3,1014.82-1065.56,0-317.13-202.96-608.89-342.5-799.17Z"/>
      <path class="cls-1" d="M6976.89,7230.59c-126.85-12.69-215.65-114.17-228.33-241.02l570.84-152.22c-12.69-279.08-177.59-520.1-469.35-520.1-317.13,0-532.78,253.71-532.78,621.58,0,291.76,164.91,558.15,507.41,558.15,202.96,0,393.24-101.48,494.72-266.39l-114.17-152.22c-38.06,88.8-126.85,152.22-228.33,152.22ZM6723.18,6710.5c0-88.8,0-241.02,88.8-241.02s114.17,126.85,114.17,202.96-38.06,114.17-101.48,126.85l-101.48,25.37v-114.17Z"/>
      <path class="cls-1" d="M7915.6,7458.93h-596.21v-152.22l101.48-12.69v-469.35c0-164.91-25.37-253.71-139.54-253.71v-126.85l431.3-126.85c50.74,101.48,63.43,202.96,76.11,317.13h0c38.06-126.85,101.48-304.45,241.02-304.45s177.59,88.8,177.59,215.65-50.74,215.65-139.54,215.65c-50.74,0-101.48-12.69-139.54-38.06-76.11-25.37-101.48,317.13-101.48,380.56v202.96l101.48,12.69-12.69,139.54Z"/>
      <path class="cls-1" d="M8917.73,6532.9c0,76.11-76.11,139.54-152.22,139.54h-12.69c-101.48,0-190.28-88.8-190.28-190.28-38.06,0-76.11,25.37-76.11,101.48,0,177.59,494.72,50.74,494.72,494.72,0,329.82-241.02,418.61-469.35,418.61-139.54,0-380.56-25.37-380.56-228.33-12.69-88.8,50.74-152.22,126.85-164.91h12.69c152.22,0,177.59,139.54,202.96,228.33,12.69,25.37,25.37,38.06,50.74,25.37,76.11,0,139.54-38.06,139.54-88.8,0-202.96-507.41-126.85-507.41-545.47,0-266.39,329.82-393.24,482.04-393.24,177.59-12.69,279.07,50.74,279.07,202.96"/>
      <path class="cls-1" d="M5556.14,5809.84c-190.28-12.69-367.87,76.11-482.04,228.33h0l25.37-279.08c12.69-190.28,50.74-697.69,317.13-697.69,126.85,0,101.48,164.91,114.17,241.02,38.06,177.59,114.17,380.56,355.19,380.56,177.59,12.69,329.82-126.85,342.5-304.45v-25.37c0-342.5-291.76-570.84-634.26-570.84-913.34,0-1268.53,685-1268.53,1509.54,0,723.06,279.08,1344.64,1052.88,1344.64,494.72,0,900.65-355.19,900.65-951.39-12.69-507.41-279.08-875.28-723.06-875.28ZM5289.75,7357.45c-215.65,0-202.96-279.08-202.96-596.21s25.37-596.21,202.96-596.21c215.65,0,228.33,279.08,228.33,596.21s-38.06,596.21-228.33,596.21Z"/>
      <path class="cls-2" d="M2600.48,4769.65v1065.56c596.21,88.8,1306.58,25.37,1813.99-710.37,25.37-25.37,38.06-12.69,25.37,12.69-139.54,291.76-469.35,545.47-761.12,773.8-291.76,228.33-1014.82,1002.13-1014.82,1687.14,0,50.74,0,38.06,50.74,0,228.33-164.91,672.32-177.59,938.71-38.06q38.06,12.69,38.06-38.06c-50.74-532.78,63.43-1116.3,291.76-1446.12,152.22-228.33,583.52-837.23,646.95-1306.58,0-50.74-12.69-38.06-76.11,25.37-482.04,507.41-1344.64,494.72-1902.79-38.06-38.06-38.06-50.74-25.37-50.74,12.69"/>
      <circle class="cls-3" cx="3640.67" cy="4135.39" r="1027.51"/>
      <polygon class="cls-1" points="3640.67 3145.94 3666.04 3247.42 3792.89 3247.42 3691.41 3323.54 3729.46 3425.02 3640.67 3361.59 3551.87 3425.02 3577.24 3323.54 3488.44 3247.42 3602.61 3247.42 3640.67 3145.94"/>
      <polygon class="cls-1" points="4312.99 3539.18 4351.04 3653.35 4465.21 3653.35 4376.41 3716.78 4414.47 3818.26 4312.99 3754.83 4224.19 3818.26 4262.24 3716.78 4160.76 3653.35 4287.61 3653.35 4312.99 3539.18"/>
      <polygon class="cls-1" points="4021.22 3234.74 4059.28 3336.22 4173.45 3336.22 4084.65 3412.33 4122.71 3513.81 4021.22 3450.39 3932.43 3513.81 3970.48 3412.33 3869 3336.22 3995.85 3336.22 4021.22 3234.74"/>
      <polygon class="cls-1" points="4427.15 3919.74 4465.21 4021.22 4579.38 4021.22 4490.58 4097.34 4515.95 4198.82 4427.15 4135.39 4338.36 4198.82 4376.41 4097.34 4274.93 4021.22 4389.1 4021.22 4427.15 3919.74"/>
      <polygon class="cls-1" points="4376.41 4312.99 4414.47 4414.47 4528.63 4414.47 4439.84 4490.58 4465.21 4592.06 4376.41 4528.63 4287.61 4592.06 4325.67 4490.58 4224.19 4414.47 4351.04 4414.47 4376.41 4312.99"/>
      <polygon class="cls-1" points="4160.76 4630.12 4198.82 4731.6 4312.99 4731.6 4211.5 4807.71 4249.56 4909.19 4160.76 4845.77 4071.97 4909.19 4110.02 4807.71 4008.54 4731.6 4122.71 4731.6 4160.76 4630.12"/>
      <polygon class="cls-1" points="3818.26 4807.71 3856.32 4909.19 3970.48 4909.19 3869 4985.3 3907.06 5086.79 3818.26 5023.36 3729.46 5086.79 3754.83 4985.3 3666.04 4909.19 3780.2 4909.19 3818.26 4807.71"/>
      <polygon class="cls-1" points="2942.98 3501.13 2904.92 3615.3 2790.76 3615.3 2892.24 3678.72 2854.18 3792.89 2942.98 3716.78 3031.77 3792.89 2993.72 3678.72 3095.2 3615.3 2981.03 3615.3 2942.98 3501.13"/>
      <polygon class="cls-1" points="3222.05 3234.74 3196.68 3336.22 3082.52 3336.22 3171.31 3412.33 3133.26 3513.81 3222.05 3450.39 3323.54 3513.81 3285.48 3412.33 3374.28 3336.22 3260.11 3336.22 3222.05 3234.74"/>
      <polygon class="cls-1" points="2803.44 3869 2778.07 3970.48 2663.9 3970.48 2752.7 4046.59 2714.64 4148.08 2803.44 4084.65 2904.92 4148.08 2866.87 4046.59 2955.66 3970.48 2841.5 3970.48 2803.44 3869"/>
      <polygon class="cls-1" points="2841.5 4262.24 2803.44 4376.41 2689.27 4376.41 2790.76 4439.84 2752.7 4554 2841.5 4477.89 2930.29 4554 2904.92 4439.84 2993.72 4376.41 2879.55 4376.41 2841.5 4262.24"/>
      <polygon class="cls-1" points="3069.83 4592.06 3031.77 4693.54 2917.61 4693.54 3006.4 4769.65 2968.35 4871.14 3069.83 4807.71 3158.63 4871.14 3120.57 4769.65 3209.37 4693.54 3095.2 4693.54 3069.83 4592.06"/>
      <polygon class="cls-1" points="3412.33 4795.02 3374.28 4896.51 3260.11 4896.51 3348.91 4972.62 3323.54 5074.1 3412.33 5010.67 3501.13 5074.1 3463.07 4972.62 3564.56 4896.51 3437.7 4896.51 3412.33 4795.02"/>
    </g>
  </g>
</svg>