<?xml version="1.0" encoding="UTF-8"?>
<svg id="Calque_2" data-name="Calque 2" xmlns="http://www.w3.org/2000/svg" viewBox="0 0 8327.53 10317.69">
  <defs>
    <style>
      .cls-1 {
        fill: #ddc9a3;
      }

      .cls-1, .cls-2, .cls-3 {
        stroke-width: 0px;
      }

      .cls-2 {
        fill: #fff;
      }

      .cls-3 {
        fill: #295135;
      }
    </style>
  </defs>
  <g id="Layer_1" data-name="Layer 1">
    <g id="BUCK-2">
      <path class="cls-1" d="M4160.76,10317.69C1867.15,10317.69,11.53,8462.06,0,6168.45c0-1117.99,449.5-2189.87,1244.77-2973.62l23.05-11.53c-299.67-437.97-414.92-968.15-311.19-1486.81,115.26-633.91,530.18-1175.62,1129.51-1429.18,11.53,0,34.58-11.53,46.1-11.53,46.1,0,92.21,23.05,115.26,69.15,11.53,23.05,23.05,57.63,11.53,80.68,195.94-172.88,426.45-299.67,680.01-380.35h34.58c46.1,0,92.21,34.58,115.26,69.15,23.05,57.63,0,126.78-46.1,161.36-265.09,172.88-495.6,380.35-668.49,633.91,138.31-34.58,265.09-57.63,403.4-57.63h23.05c69.15,0,126.78,46.1,138.31,115.26,0,69.15-46.1,126.78-115.26,138.31h0c-265.09,80.68-507.13,195.94-726.12,357.3-207.46,645.44-103.73,1348.5,276.62,1913.26,57.63,69.15,115.26,149.83,172.88,218.99-23.05-449.5,115.26-1152.56,922.05-1475.28,11.53-11.53,34.58-11.53,46.1-11.53,46.1,0,92.21,23.05,115.26,69.15,34.58,57.63,11.53,138.31-46.1,161.36h-11.53c-126.78,80.68-230.51,184.41-311.19,299.67,69.15-23.05,138.31-34.58,207.46-34.58h23.05c57.63,0,103.73,34.58,115.26,80.68,23.05,57.63,0,115.26-57.63,149.83h-11.53c-265.09,149.83-403.4,322.72-426.45,518.65-11.53,184.41,46.1,380.35,172.88,518.65,184.41-253.56,322.72-541.71,403.4-852.9,11.53-57.63,69.15-92.21,126.78-92.21h11.53c69.15,0,115.26,57.63,115.26,126.78,11.53,391.87-80.68,783.74-288.14,1129.51,149.83,69.15,311.19,115.26,484.08,115.26h23.05c161.36,0,334.24-46.1,484.08-115.26-207.46-345.77-299.67-737.64-288.14-1129.51,0-69.15,46.1-115.26,115.26-126.78h34.58c57.63,0,103.73,34.58,115.26,92.21,80.68,311.19,207.46,599.33,403.4,841.37,126.78-149.83,184.41-334.24,172.88-518.65-23.05-195.94-172.88-368.82-426.45-518.65h-11.53c-46.1-34.58-69.15-92.21-57.63-149.83,11.53-46.1,57.63-80.68,115.26-92.21h34.58c69.15,11.53,138.31,23.05,207.46,46.1-80.68-115.26-184.41-218.99-311.19-299.67h0c-57.63-34.58-80.68-103.73-46.1-172.88,23.05-46.1,69.15-69.15,115.26-69.15,11.53,0,34.58,0,46.1,11.53,806.8,322.72,945.1,1025.78,922.05,1475.28,57.63-69.15,115.26-138.31,172.88-218.99,253.56-368.82,380.35-795.27,380.35-1244.77,0-230.51-34.58-461.03-103.73-680.01-218.99-161.36-461.03-276.62-726.12-357.3-69.15-11.53-115.26-80.68-92.21-149.83,11.53-57.63,57.63-92.21,115.26-103.73h23.05c138.31,0,265.09,23.05,391.87,57.63-172.88-253.56-403.4-461.03-656.96-622.38-57.63-34.58-80.68-103.73-46.1-161.36,23.05-46.1,69.15-80.68,115.26-69.15h34.58c242.04,80.68,472.55,218.99,680.01,380.35-11.53-23.05,0-57.63,11.53-80.68,23.05-46.1,69.15-69.15,115.26-69.15,11.53,0,34.58,0,46.1,11.53,587.81,253.56,1014.26,795.27,1129.51,1429.18,103.73,518.65-11.53,1060.36-311.19,1486.81l23.05,11.53c1625.12,1625.12,1659.69,4252.96,57.63,5889.6-783.74,806.8-1867.15,1256.3-2985.14,1256.3Z"/>
      <path class="cls-3" d="M1671.22,3010.43s-184.41-829.85-46.1-1325.45c-34.58,34.58-69.15,80.68-103.73,126.78-334.24,426.45,149.83,1198.67,149.83,1198.67ZM6650.3,3010.43s484.08-760.69,161.36-1198.67c-34.58-46.1-69.15-80.68-115.26-126.78,138.31,495.6-46.1,1325.45-46.1,1325.45h0ZM1083.41,1719.55c103.73-587.81,495.6-1083.41,1048.83-1325.45-391.87,311.19-656.96,760.69-749.17,1256.3,103.73-138.31,242.04-265.09,380.35-368.82,230.51-530.18,668.49-933.58,1210.19-1129.51-368.82,230.51-680.01,553.23-875.95,945.1,218.99-92.21,449.5-138.31,691.54-138.31-288.14,80.68-564.76,218.99-806.8,403.4-80.68,242.04-126.78,507.13-126.78,760.69,0,472.55,138.31,922.05,403.4,1313.92,126.78,184.41,276.62,345.77,461.03,484.08-57.63-149.83-276.62-1267.82,783.74-1694.27h-11.53c-253.56,161.36-437.97,426.45-507.13,714.59,138.31-126.78,322.72-207.46,507.13-218.99h0c-991.21,576.28-207.46,1348.5-207.46,1348.5,311.19-265.09,495.6-841.37,530.18-1002.73,0,622.38-207.46,991.21-345.77,1164.09,195.94,138.31,437.97,207.46,668.49,207.46h0c242.04,0,484.08-69.15,680.01-207.46-138.31-184.41-345.77-553.23-345.77-1164.09,34.58,161.36,218.99,749.17,530.18,1002.73,0,0,783.74-772.22-207.46-1336.97h0c184.41,11.53,368.82,80.68,507.13,218.99-69.15-299.67-253.56-553.23-507.13-714.59h-11.53c1060.36,426.45,841.37,1555.96,783.74,1694.27,184.41-126.78,334.24-299.67,461.03-472.55,299.67-414.92,437.97-864.42,437.97-1336.97,0-253.56-46.1-518.65-126.78-760.69-242.04-184.41-507.13-322.72-795.27-403.4,242.04,0,472.55,46.1,691.54,138.31-195.94-391.87-507.13-714.59-875.95-945.1,541.71,195.94,979.68,599.33,1210.19,1129.51,149.83,103.73,276.62,230.51,380.35,368.82-92.21-495.6-357.3-945.1-749.17-1256.3,553.23,242.04,945.1,737.64,1048.83,1325.45,242.04,1198.67-714.59,1936.31-1486.81,2581.74l587.81-242.04c34.58-23.05,69.15,23.05,57.63,69.15l-23.05,149.83c-11.53,80.68-69.15,484.08-288.14,610.86-115.26,46.1-242.04,80.68-368.82,80.68l-437.97,23.05,69.15,253.56-437.97,691.54,218.99-230.51,449.5,1613.59-1244.77,1014.26,391.87-1751.9-576.28,703.06-576.28-703.06,391.87,1751.9-1244.77-1025.78,449.5-1613.59,218.99,230.51-437.97-691.54,69.15-253.56-437.97-23.05c-126.78,0-253.56-23.05-368.82-80.68-218.99-126.78-276.62-530.18-288.14-610.86l-11.53-149.83c-11.53-46.1,23.05-80.68,57.63-69.15l587.81,242.04c-772.22-633.91-1728.85-1383.08-1486.81-2570.22h0ZM1636.64,3598.23c-680.01,680.01-1071.88,1602.06-1071.88,2558.69,0,230.51,23.05,449.5,69.15,668.49l1083.41-288.14c195.94,1348.5,1452.23,2270.55,2800.73,2063.09,1071.88-161.36,1913.26-1002.73,2063.09-2074.62l1117.99,311.19c218.99-1175.62-149.83-2385.81-1002.73-3227.18l92.21-103.73c1475.28,1452.23,1486.81,3826.51,34.58,5290.27-1452.23,1463.76-3814.99,1475.28-5290.27,23.05C57.63,7367.12,57.63,5004.36,1509.86,3529.08c11.53-11.53,23.05-23.05,34.58-34.58l92.21,103.73h0ZM6984.54,3298.57l-92.21,103.73c1532.91,1509.86,1544.44,3964.82,34.58,5497.73-1509.86,1532.91-3976.35,1532.91-5497.73,23.05-1521.39-1509.86-1532.91-3976.35-23.05-5497.73q11.53-11.53,23.05-23.05l-92.21-103.73c-1579.01,1555.96-1602.06,4103.13-34.58,5693.67,1567.49,1590.54,4103.13,1602.06,5682.14,46.1,1579.01-1555.96,1602.06-4103.13,46.1-5693.67-11.53-23.05-23.05-34.58-46.1-46.1h0Z"/>
      <path class="cls-2" d="M3872.62,8819.35l-230.51,311.19,103.73,553.23-138.31-23.05-80.68-403.4-57.63,380.35-126.78-23.05,149.83-864.42,126.78,23.05-34.58,242.04,161.36-218.99,126.78,23.05h0ZM5682.14,9199.7l-115.26-218.99,149.83-80.68,115.26,218.99-149.83,80.68ZM5405.53,8681.04l149.83-80.68,103.73,184.41-149.83,80.68-103.73-184.41ZM5762.82,8830.88l11.53-80.68-138.31-242.04-115.26-46.1-299.67,161.36,414.92,760.69,299.67-161.36,34.58-126.78-126.78-230.51-80.68-34.58h0ZM4391.27,9556.99v138.31l-414.92,11.53-11.53-864.42,414.92-11.53v138.31h-288.14v207.46h288.14v138.31h-288.14v242.04h299.67ZM5025.18,9453.26l23.05,138.31-414.92,80.68-161.36-852.9,414.92-80.68,23.05,138.31-276.62,57.63,34.58,207.46,276.62-57.63,23.05,138.31-265.09,46.1,46.1,242.04,276.62-57.63h0ZM6016.39,8070.18l564.76,668.49-69.15,57.63-195.94,161.36-80.68,69.15-553.23-668.49,103.73-92.21,472.55,553.23,126.78-115.26-472.55-553.23,103.73-80.68h0ZM7595.4,6998.3l-115.26,426.45-92.21-23.05-138.31-46.1,34.58-126.78,103.73,34.58,46.1-161.36-230.51-69.15-92.21,276.62-92.21-23.05-368.82-115.26,23.05-92.21,92.21-322.72,92.21,23.05,138.31,46.1-34.58,126.78-103.73-23.05-46.1,161.36,195.94,57.63,92.21-288.14,92.21,23.05,311.19,92.21,92.21,23.05h0ZM6834.71,7540.01l553.23,69.15-69.15,126.78-403.4-46.1,334.24,184.41-57.63,115.26-772.22-414.92,57.63-115.26,218.99,115.26-161.36-218.99,69.15-126.78,230.51,311.19h0ZM6973.02,8139.34l80.68,57.63-218.99,265.09-57.63,80.68-599.33-484.08-80.68-57.63,276.62-345.77,80.68,57.63,126.78,103.73-80.68,103.73-92.21-80.68-103.73,138.31,461.03,368.82,103.73-138.31-92.21-80.68,80.68-103.73,115.26,115.26h0ZM3400.07,8727.15l-311.19,806.8-92.21-34.58-230.51-92.21-103.73-34.58,322.72-806.8,126.78,46.1-265.09,680.01,161.36,57.63,265.09-680.01,126.78,57.63h0ZM1360.03,8081.71l161.36,230.51-115.26,80.68-242.04-345.77,714.59-507.13,80.68,115.26-599.33,426.45h0ZM1694.27,7194.24l-829.85,288.14-46.1-126.78,518.65-172.88-242.04-11.53,184.41-149.83-507.13,172.88-46.1-126.78,829.85-288.14,46.1,126.78-184.41,149.83,242.04,11.53,34.58,126.78ZM1821.05,7424.75l-772.22,414.92-69.15-115.26,772.22-414.92,69.15,115.26ZM2478.01,8231.54l-668.49,576.28-92.21-92.21,161.36-242.04-242.04,161.36-92.21-92.21,553.23-680.01,92.21,92.21-230.51,288.14,311.19-207.46,34.58,34.58-195.94,311.19,276.62-230.51,92.21,80.68h0ZM2604.8,8738.67l-138.31-92.21,115.26-184.41,138.31,92.21-115.26,184.41ZM2881.41,8554.26l23.05-34.58h0l-368.82-230.51h0l-472.55,726.12,115.26,69.15,207.46-322.72,138.31,92.21-207.46,322.72,115.26,69.15,391.87-622.38,57.63-69.15h0Z"/>
      <path class="cls-2" d="M3757.36,4958.26l-299.67-138.31c-23.05-11.53-46.1,0-46.1,23.05v11.53c-11.53,69.15,11.53,138.31,57.63,184.41,92.21,80.68,218.99,69.15,299.67-11.53,23.05-23.05,23.05-46.1-11.53-69.15q11.53,0,0,0Z"/>
      <path class="cls-2" d="M2132.24,4266.72s46.1,357.29,195.94,437.97c103.73,57.63,345.77,46.1,564.76,69.15-276.62-115.26-530.18-288.14-760.69-507.13Z"/>
      <polygon class="cls-2" points="3907.19 6422.02 4033.98 6594.9 4299.07 6594.9 4414.32 6422.02 3907.19 6422.02"/>
      <path class="cls-2" d="M6200.8,4266.72c-230.51,207.46-484.08,380.35-772.22,507.13,218.99-23.05,461.03-11.53,564.76-69.15,149.83-69.15,195.94-437.97,207.46-437.97h0Z"/>
      <path class="cls-2" d="M4414.32,5476.91l-115.26-380.35-138.31,57.63-138.31-69.15-115.26,380.35c-34.58,103.73-103.73,195.94-207.46,253.56l-57.63,322.72,172.88,230.51h184.41l-172.88-242.04,23.05-161.36c161.36,172.88,426.45,184.41,599.33,23.05q11.53-11.53,23.05-23.05l34.58,161.36-172.88,253.56h184.41l172.88-230.51-69.15-322.72c-92.21-57.63-172.88-149.83-207.46-253.56h0Z"/>
      <path class="cls-2" d="M4863.82,4819.95l-299.67,138.31c-23.05,11.53-23.05,34.58-23.05,57.63,0,0,0,11.53,11.53,11.53,80.68,92.21,218.99,92.21,299.67,11.53,57.63-46.1,80.68-115.26,57.63-184.41,0-23.05-23.05-34.58-46.1-34.58q11.53,0,0,0Z"/>
    </g>
  </g>
</svg>