<?xml version="1.0" encoding="UTF-8"?>
<svg width="500" height="430.22" version="1.1" viewBox="0 0 500 430.22" xmlns="http://www.w3.org/2000/svg">
 <defs>
  <style>.cls-1{fill:#b4975a;}.cls-2{fill:#72253d;}</style>
 </defs>
 <g transform="matrix(5.8554 0 0 5.8554 .010976 -.003421)" stroke-width=".17078" data-name="Layer 2">
  <g stroke-width=".17078" data-name="Layer 1">
   <path class="cls-1" d="m85.39 14.63v-6.27l-1.53-1.55c-19.69-18.73-61.86 5.86-76.17 17.71l-7.07 11 8.79-2.18c-13.51 16.91-8.68 28.02-8.11 29.17 1.42 4 4.67 7.2 9.93 9.3 4 1.6 8.53 1.79 12.42 1.61 16.79-0.78 36.64-11.25 49.46-22.42l0.3-0.26 2.59-12.84-5 2.77a310.41 310.41 0 0 1-31.21 11.8c-9.11 2.84-13.29 3.3-16.27 2.61l-0.39-0.08a1.46 1.46 0 0 1-1-1.26c-0.14-5.7 9.66-18 14.6-23.25 4.6-4.94 11.83-10.36 17.95-12.94 4.1-1.72 6.74-2.41 8-2.28a26.36 26.36 0 0 1-1.7 4s-4.76 9.39-6.34 12.49a0.32 0.32 0 0 0 0.44 0.42z"/>
   <path class="cls-2" d="m46.51 13.71c-5.65 3-12.12 9-14.15 11.13-16.51 17.59-28.08 41.09 8.08 29.83a310.14 310.14 0 0 0 31.5-11.92c-49.39 41.72-96.01 24.25-50.13-19.59-4.18 0.95-8.39 1.86-12.52 3 14.71-12.16 54.98-34.82 72.97-17.7l-19.26 11.78c8.25-16.17-6.61-12.37-16.53-6.53"/>
  </g>
 </g>
</svg>
