<?xml version="1.0" encoding="UTF-8"?>
<svg width="800" height="648.54" version="1.1" viewBox="0 0 800 648.54" xml:space="preserve" xmlns="http://www.w3.org/2000/svg">
<style type="text/css">
	.st0{fill:#FFFFFF;}
	.st1{fill:none;}
	.st2{fill:#B1B1B1;}
	.st3{fill:#003DA6;}
	.st4{fill:#FF671D;}
	.st5{fill:#0067B1;stroke:#007CC3;stroke-width:0.0735;}
	.st6{fill:none;stroke:#F26649;stroke-width:0.0735;}
</style>
<path class="st0" d="m398.5 648.54-52.963-68.806c-67.418-22.203-114.37-83.261-118.76-154.15l-32.842-42.671c-31.223 13.53-62.561 34.808-62.561 34.808l-98.641-98.988 41.631-91.125-74.357-96.56h118.3l22.897-49.841 58.514-23.591 6.4759-17.693 47.413 21.625 11.333-39.433 7.7479-2.5441c37.467-12.605 80.717-19.312 125.01-19.543 1.272-0.11564 15.38 0.11564 15.727 0.11564 1.619 0 8.5574 0.34692 8.5574 0.34692 37.467 1.8502 72.622 8.0948 104.65 18.502l7.8635 2.5441 10.408 37.583 17.115-12.952 95.982 34.114 23.128 50.535h118.88l-75.166 96.907 40.937 89.853-100.14 103.15s-36.774-26.829-61.868-36.774l-30.182 38.971c-3.4692 72.622-52.848 136.34-122.23 157.62z"/><g transform="matrix(11.564 0 0 11.564 -5.0882 -78.603)" stroke-width=".086475">
			<g stroke-width=".086475">
				<polygon class="st1" points="64.46 20.65 5.56 20.65 34.91 58.76"/>
				<g>
					<polygon class="st2" points="64.46 20.65 5.56 20.65 34.91 58.76"/>
					<path class="st3" d="m3.13 19.45 31.78 41.25 31.99-41.24zm61.33 1.2-29.55 38.1-29.35-38.1z"/>
				</g>
			</g>
			<path class="st3" d="m60.2 23.3-0.01-0.03-0.02-0.01-1.89-1.27 0.7-1.35 0.02-0.03-0.02-0.04-2.6-5.7-0.02-0.04-0.04-0.01-7.02-2.5-0.05-0.02-0.04 0.03-1.86 1.42-0.02 0.02-0.01 0.02-0.32 0.78s-2.91-0.73-7.18-1.16c-0.44-0.04-1.6-0.14-3.45-0.29l-0.18-0.01-0.19-0.01h-0.04l-0.03 0.03-1.39 1.38v-1.42s-3.93 0.22-6.51 0.57-5.11 0.99-5.11 0.99l-0.47-1-0.01-0.03-0.03-0.01-3.31-1.51-0.09-0.04-0.03 0.1-0.39 1.05-0.09-0.21-0.04-0.09-0.09 0.04-4.74 1.9-0.03 0.01-0.02 0.03-8.74 19.2 7.17 7.19 0.33-0.19c0.22-0.12 0.52-0.3 0.87-0.51 0.87-0.51 2.06-1.21 2.62-1.49l0.12-0.06c0.73-0.36 1.1-0.53 4.59-2.03l0.29-0.11s0.39-0.15 1.11-0.39c1.92-0.64 6.89-2.12 11.71-2.12h0.05c0.19 0 0.38 0 0.58 0.01 3.27 0.09 7.1 0.79 9.74 1.35 2.53 0.55 4.44 1.07 4.98 1.22l0.36 0.11c2.4 0.93 5.33 2.46 8.05 4.2l0.35 0.22 7.26-7.48z" stroke-width=".086475"/>
			<g stroke-width=".086475">
				<path class="st4" d="m59.42 23.97-6.98-4.66-1.21-3.41 2.16 0.77 0.87 2.13 3.29 1.05-1.92-4.24-6.2-2.2-1.14 0.88 2.06 6.7 6.64 4.69 1.7 4.24-2.76-1.25-0.95-2.64-3.39-1 1.81 5.96c0.56 0.2 1.11 0.42 1.66 0.64 1.51 0.61 2.98 1.29 4.43 2.02 1 0.51 1.98 1.05 2.95 1.62l1.44-1.48z"/>
				<path class="st4" d="m12.34 27.13 2.33-2.08 0.56 0.65-2.3 6.6c1.26-0.55 2.53-1.06 3.83-1.52l1.66-5.45-1.44-2.37 2.98-2.83 1.74-5.79-2.14-0.96-1.92 5.46-3.08 2.65 2.81-7.08-3.01 1.2-8.31 18.23 1.3 1.3c0.77-0.45 1.55-0.88 2.34-1.29z"/>
				<path class="st4" d="m33.4 14.13-2.55 0.13-1.2 13.67c1.08-0.1 2.17-0.17 3.27-0.21z"/>
				<path class="st4" d="m40.96 25.1-2.96-0.18-0.47-8.37 2.51 0.12-0.29-2.31-3.37-0.24-1.51 1.51v10.47l1.58 1.62c1.63 0.05 3.25 0.17 4.85 0.37z"/>
				<path class="st4" d="m24.19 19.53 1.07 5.2-0.69 3.94c1.03-0.2 2.08-0.37 3.13-0.51h0.01l1.65-13.71-2.37 0.34-0.78 4.49-0.88-4.22-2.78 0.7-3.87 14.39c1.12-0.35 2.25-0.66 3.39-0.94z"/>
				<path class="st4" d="m44.75 24.34 0.83-1.12 1.22 1 1.12 5.1c1.17 0.3 2.33 0.63 3.48 1l-2.09-7.48-2.15-1.76 1.23-1.63-1.02-3.79-2.6-0.58 1.02 3.82-1.62 2.16-1.2-6.29-2.41-0.31s1.21 9.22 1.78 13.76c1.09 0.15 2.17 0.34 3.24 0.56z"/>
				<path class="st2" d="m30.02 30.53s1-0.59 3.01-0.81l-0.06-1.58c-1.1 0.04-2.19 0.11-3.28 0.21 0.1 0.62 0.24 1.54 0.33 2.18z"/>
				<path class="st2" d="m36.4 29.63c0.82 0.1 1.69 0.36 2.45 0.58 0.69 0.17 1.44 0.46 2.05 0.74l0.34-2.43c-1.61-0.2-3.14-0.32-4.79-0.37-0.02 0.46-0.02 1.13-0.05 1.48z"/>
				<path class="st2" d="m25.85 33.48c0.93-0.69 1.49-1.41 2.48-2.01-0.19-0.88-0.43-2.03-0.62-2.9-1.07 0.14-2.13 0.32-3.18 0.52 0.4 1.31 0.91 3.07 1.32 4.39z"/>
				<path class="st2" d="m41.72 31.43c0.91 0.53 1.62 1.12 2.43 1.91l0.16 0.12 1.28-4.24c-1.1-0.23-2.18-0.43-3.31-0.59z"/>
				<path class="st2" d="m45.76 35.12 3.06 0.72 2.57-5.09c-1.19-0.39-2.33-0.71-3.55-1.01z"/>
				<path class="st2" d="m21.16 35.84c0.8-0.29 1.91-0.7 2.95-0.97l-1.99-5.25c-1.2 0.29-2.25 0.6-3.42 0.97 0.76 1.75 1.59 3.56 2.46 5.25z"/>
				<path class="st2" d="m16.55 37.73c0.18-0.15 1.91-0.9 3.1-1.4-0.9-1.63-1.99-3.44-2.89-5.1-1.29 0.46-2.47 0.94-3.73 1.5z"/>
				<path class="st2" d="m12.22 40.02c0.55-0.33 1.14-0.67 1.78-1.04l-4.06-4.79c-0.77 0.4-1.53 0.82-2.28 1.26z"/>
				<path class="st2" d="m50.44 36.47c2.44 0.94 5.84 2.85 7.2 3.76 0.62-0.6 4.01-4.15 4.48-4.64-2.82-1.65-5.78-3.06-8.86-4.19z"/>
			</g>
			<polygon class="st2" points="35.96 27.94 35.93 29.55 34.77 29.51 34.75 26.68" stroke-width=".086475"/>
			<path class="st3" d="m35.03 28.99c-7.56 0-13.68 6.13-13.69 13.69 0 7.56 6.13 13.68 13.69 13.68s13.68-6.13 13.68-13.68c0.01-7.57-6.12-13.69-13.68-13.69z" stroke-width=".086475"/>
			<path class="st5" d="m35.03 42.67"/>
			<g stroke-width=".086475">
				<path class="st4" d="m35.87 30.01c-1.05 0.37-2.06 0.9-3.06 1.36-0.68-0.41-1.08-0.51-1.54-0.81 1.44-0.52 2.99-0.6 4.6-0.55z"/>
				<path class="st4" d="m32.81 31.41-0.01-0.01c-0.35-0.21-0.62-0.34-0.86-0.45s-0.45-0.21-0.68-0.36l-0.06-0.04 0.06-0.02c1.06-0.39 2.29-0.57 3.85-0.57 0.24 0 0.49 0 0.76 0.01l0.01 0.06c-0.78 0.27-1.55 0.64-2.29 1-0.25 0.12-0.52 0.25-0.77 0.37zm-1.46-0.84c0.2 0.13 0.39 0.22 0.61 0.32 0.24 0.11 0.51 0.24 0.85 0.45 0.25-0.12 0.51-0.24 0.76-0.36 0.69-0.33 1.4-0.67 2.13-0.94-0.21-0.01-0.4-0.01-0.59-0.01-1.52 0-2.72 0.17-3.76 0.54z"/>
			</g>
			<g stroke-width=".086475">
				<path class="st4" d="m45.68 35.82c-3.22-3.25-8.06-3.01-12.16-4.16 0 0 2.41-1.15 3.66-1.47 3.35 0.57 6.59 2.58 8.5 5.63z"/>
				<path class="st4" d="m45.65 35.84c-2.29-2.31-5.45-2.86-8.5-3.39-1.22-0.21-2.48-0.43-3.65-0.76l-0.08-0.02 0.08-0.04c0.02-0.01 2.43-1.16 3.67-1.47h0.02c3.51 0.6 6.69 2.71 8.53 5.65zm-12.04-4.19c1.15 0.32 2.38 0.53 3.56 0.74 2.97 0.52 6.04 1.05 8.33 3.21-1.84-2.79-4.93-4.79-8.32-5.37-1.11 0.28-3.15 1.22-3.57 1.42z"/>
			</g>
			<g stroke-width=".086475">
				<path class="st4" d="m27.55 36.31c-3.1 4.75-3.52 10.61-1.05 15.74-3.19-2.68-5.09-7.86-3.66-12.9 1.18-1.64 2.68-3.08 4.71-2.84z"/>
				<path class="st4" d="m26.48 52.07c-1.61-1.35-2.88-3.34-3.57-5.58-0.74-2.42-0.78-4.96-0.1-7.35v-0.01c1.41-1.97 2.77-2.88 4.29-2.88 0.15 0 0.3 0.01 0.45 0.03l0.05 0.01-0.03 0.04c-3.1 4.75-3.49 10.63-1.05 15.71zm-3.61-12.91c-1.31 4.61 0.14 9.83 3.53 12.76-2.37-5.05-1.97-10.86 1.09-15.59-0.13-0.01-0.26-0.02-0.39-0.02-1.49 0.01-2.83 0.91-4.23 2.85z"/>
			</g>
			<g stroke-width=".086475">
				<path class="st4" d="m30.87 39.69c1.67 4.96 2.04 10.46 6.36 15.46-3.37 0.68-6.71-0.33-9.37-2.01-3.3-4.81-2.99-11.99 0.31-16.66 1.6 0.46 2.48 2.57 2.7 3.21z"/>
				<path class="st4" d="m35.06 55.4c-3.05 0-5.61-1.21-7.22-2.23l-0.01-0.01c-3.22-4.71-3.09-11.88 0.31-16.69l0.01-0.02 0.02 0.01c1.76 0.51 2.63 2.96 2.72 3.23 0.44 1.29 0.78 2.6 1.13 3.97 1 3.83 2.03 7.78 5.22 11.47l0.04 0.04-0.06 0.01c-0.69 0.15-1.43 0.22-2.16 0.22zm-7.18-2.28c1.6 1.01 4.15 2.22 7.18 2.22 0.71 0 1.42-0.07 2.11-0.2-3.17-3.69-4.2-7.64-5.2-11.46-0.36-1.38-0.7-2.68-1.13-3.97-0.09-0.27-0.95-2.67-2.65-3.19-3.38 4.79-3.51 11.92-0.31 16.6z"/>
			</g>
			<path class="st6" d="m36.85 29.79"/>
			<g stroke-width=".086475">
				<path class="st4" d="m28.55 35.96c0.5-0.71 1.07-1.38 1.7-2 7.01 1.98 13.7 9.25 14.84 16.39-0.33 0.54-1.13 1.29-1.67 1.83-1.74 1.57-3.66 2.38-5.5 2.82-3.27-3.4-4.35-7.8-5.51-12.15-0.89-3.34-1.5-5.85-3.85-6.87z"/>
				<path class="st4" d="m37.9 55.03-0.01-0.01c-3.16-3.28-4.29-7.55-5.39-11.69l-0.19-0.73c-0.87-3.26-1.49-5.62-3.77-6.6h-0.02l-0.01-0.05 0.01-0.01c0.51-0.72 1.08-1.39 1.71-2l0.01-0.01 0.02 0.01c3.41 0.96 6.83 3.19 9.64 6.27 2.82 3.1 4.68 6.7 5.23 10.15v0.01l-0.01 0.01c-0.28 0.46-0.91 1.07-1.41 1.57l-0.27 0.27c-1.54 1.38-3.34 2.31-5.52 2.83zm-9.31-19.07c2.29 1.01 2.92 3.37 3.78 6.64l0.19 0.72c1.09 4.12 2.22 8.38 5.36 11.64 2.16-0.52 3.95-1.44 5.47-2.81l0.27-0.27c0.5-0.49 1.11-1.09 1.39-1.55-1.13-7.03-7.76-14.35-14.8-16.35-0.6 0.61-1.16 1.27-1.66 1.98z"/>
			</g>
			<g stroke-width=".086475">
				<path class="st4" d="m44.93 35.93c-3.39-2.99-8.1-2.61-12.06-4-0.77 0.47-1.51 1.02-2.15 1.59 7.01 2.2 13.37 9.05 14.89 16.14 1.1-1.59 1.76-3.43 2.03-5.39 0.17-3 0.14-5.73-2.71-8.34z"/>
				<path class="st4" d="m45.59 49.74-0.02-0.07c-1.5-7-7.89-13.93-14.87-16.11l-0.06-0.02 0.04-0.04c0.64-0.57 1.38-1.12 2.16-1.6l0.01-0.01h0.01c1.37 0.48 2.85 0.76 4.29 1.02 2.73 0.5 5.56 1.02 7.78 2.98 2.81 2.58 2.9 5.21 2.72 8.37-0.28 2.04-0.96 3.85-2.04 5.4zm-14.81-16.23c3.38 1.07 6.74 3.28 9.46 6.23s4.63 6.44 5.37 9.84c1.04-1.53 1.71-3.31 1.98-5.31 0.18-3.15 0.1-5.76-2.7-8.32-2.21-1.95-5.02-2.47-7.75-2.97-1.43-0.26-2.92-0.54-4.29-1.02-0.72 0.46-1.44 1-2.07 1.55z"/>
			</g>
			<g stroke-width=".086475">
				<path class="st4" d="m29.67 33.74c-0.68 0.65-1.18 1.29-1.71 2.04l-0.01-0.01c-1.86-0.42-3.32 0.55-4.5 1.74 0.56-1.42 1.74-3.1 2.98-4.2 1.15 0.06 1.99 0.04 3.24 0.43"/>
				<path class="st4" d="m23.47 37.54-0.05-0.03c0.57-1.44 1.77-3.14 2.99-4.21l0.01-0.01h0.01c0.14 0.01 0.28 0.01 0.41 0.02 0.97 0.04 1.73 0.06 2.84 0.41l0.05 0.02-0.04 0.04c-0.6 0.58-1.09 1.16-1.71 2.03l-0.01 0.02-0.04-0.01c-0.29-0.06-0.58-0.1-0.86-0.1-1.22-0.01-2.37 0.57-3.6 1.82zm2.98-4.19c-1.16 1.03-2.31 2.63-2.9 4.02 1.2-1.18 2.32-1.73 3.53-1.73 0.29 0 0.58 0.03 0.87 0.1 0.6-0.84 1.08-1.42 1.66-1.98-1.07-0.33-1.82-0.35-2.76-0.39-0.13-0.01-0.27-0.01-0.4-0.02z"/>
			</g>
			<g stroke-width=".086475">
				<path class="st4" d="m30.17 33.31c0.66-0.59 1.31-1.11 2.1-1.58l-1.8-0.89c-1.2 0.49-2.48 1.13-3.36 1.93 1.37 0.15 1.95 0.23 3.06 0.54z"/>
				<path class="st4" d="m30.18 33.34h-0.02c-1.11-0.3-1.68-0.39-3.05-0.54l-0.07-0.01 0.05-0.05c0.74-0.68 1.85-1.32 3.37-1.94l0.01-0.01 0.01 0.01 1.85 0.92-0.05 0.03c-0.87 0.52-1.55 1.09-2.1 1.58zm-2.98-0.6c1.31 0.15 1.88 0.24 2.97 0.53 0.54-0.48 1.2-1.04 2.04-1.55l-1.73-0.86c-1.47 0.61-2.55 1.22-3.28 1.88z"/>
			</g>
			<path class="st3" d="m33.09 12.21-0.55 0.55-0.95 0.06-0.35-0.31-0.45 0.38-1.03 0.1-0.45-0.43 0.6-4.04 0.78-0.11-0.42 3.57 0.56-0.06 0.44-3.58 0.77-0.08-0.32 3.55 0.55-0.05 0.28-3.54c0.33-0.04 0.5-0.03 0.79-0.05z" stroke-width=".086475"/>
			<path class="st3" d="m35.63 8.12 0.01 2.54h0.5l-0.04-2.53s0.52 0.02 0.76 0.04l0.1 2.85-0.48 0.48-0.16 0.01 0.02 1.22-0.85-0.03-0.01-1.22-0.17-0.01-0.51-0.53 0.03-2.84c0.28 0.01 0.8 0.02 0.8 0.02z" stroke-width=".086475"/>
			<path class="st3" d="m29.33 8.59-0.13 0.84-0.95 0.18-0.17 0.98c0.35-0.06 0.56-0.1 0.97-0.15-0.06 0.36-0.07 0.49-0.14 0.83l-0.95 0.14-0.18 0.94 0.97-0.14s-0.1 0.63-0.15 0.91c-0.68 0.08-1.37 0.18-2.02 0.3 0 0 0.73-3.39 0.91-4.44z" stroke-width=".086475"/>
			<path class="st3" d="m25.77 13.55-0.99 0.19 0.45-1.85-0.31-0.66-0.78 2.66-0.96 0.22c0.4-1.44 0.81-2.88 1.21-4.32 0.33-0.11 0.58-0.19 0.87-0.27 0.11 0.24 0.37 0.73 0.37 0.73l0.23-0.9s0.61-0.16 0.92-0.23z" stroke-width=".086475"/>
			<path class="st3" d="m39.63 8.91c0.1 1.16 0.29 2.27 0.41 3.35l-0.43 0.66-1.39-0.09-0.5-0.55c-0.09-1.18-0.15-2.37-0.22-3.56 0.13-0.17 0.32-0.3 0.48-0.47l1.16 0.11zm-1.3 0.19 0.25 2.76 0.49 0.04-0.26-2.75z" stroke-width=".086475"/>
			<path class="st3" d="m44.13 9.32c0.17 0.66 0.51 2.03 0.51 2.03l0.33 0.07 0.16-0.22-0.41-1.7s0.41 0.11 0.85 0.25l0.44 1.65-0.21 0.3 0.38 0.42 0.58 2-0.95-0.21-0.37-1.41-0.59-0.13 0.32 1.4-0.97-0.19c-0.34-1.51-0.95-4.48-0.95-4.48s0.5 0.1 0.88 0.22z" stroke-width=".086475"/>
			<path class="st3" d="m42.63 9.48 0.32 1.65-0.18 0.25 0.32 0.39 0.28 1.64-0.93-0.16-0.25-1.37-0.56-0.06 0.2 1.33-0.93-0.12-0.62-4.54 1.77 0.31zm-1.34 0.06 0.17 1.15 0.52 0.06-0.22-1.13z" stroke-width=".086475"/>
		</g>

</svg>
