<?xml version="1.0" encoding="UTF-8"?>
<svg id="Calque_2" data-name="Calque 2" xmlns="http://www.w3.org/2000/svg" viewBox="0 0 7074.12 6472.7">
  <defs>
    <style>
      .cls-1 {
        fill: #0071ce;
      }

      .cls-1, .cls-2, .cls-3, .cls-4, .cls-5, .cls-6, .cls-7 {
        stroke-width: 0px;
      }

      .cls-2, .cls-6 {
        fill: #011e41;
      }

      .cls-3 {
        fill: #ff4438;
      }

      .cls-4 {
        fill: #ffb71b;
      }

      .cls-5, .cls-6 {
        fill-rule: evenodd;
      }

      .cls-5, .cls-7 {
        fill: #fff;
      }
    </style>
  </defs>
  <g id="Layer_1" data-name="Layer 1">
    <path class="cls-6" d="M6534.4,908.56l-321.13,657.93,195.81,93.99,321.13-657.93-195.81-93.99ZM5500.51,2522.05l932.06-1903.29,391.62,195.81c109.65,54.83,156.65,180.15,101.82,289.8h0l-344.63,704.92c-23.5,78.32-109.65,117.49-187.98,93.99-7.83,0-15.66-7.83-23.5-7.83l-234.97,939.89-195.81-93.99,234.97-939.89-62.66-31.33-407.29,845.9-203.64-93.99ZM6056.62,462.11l-415.12-133.15c-117.49-39.16-234.97,23.5-274.14,140.98h0l-516.94,1589.99c-39.16,117.49,23.5,234.97,140.98,274.14h0l415.12,133.15,70.49-211.48-415.12-133.15,227.14-697.09,313.3,101.82,70.49-211.48-313.3-101.82,227.14-697.09,415.12,133.15,54.83-187.98ZM4513.63,289.8l219.31,31.33-258.47,1652.65-219.31-23.5,258.47-1660.48ZM4004.52,2130.43l430.78,70.49c117.49,15.66,234.97-62.66,250.64-180.15l258.47-1652.65c23.5-117.49-62.66-234.97-180.15-250.64h0l-430.78-78.32-328.96,2091.26ZM3182.11,2114.76h219.31l7.83-610.93c0-187.98-7.83-563.94-15.66-744.08h7.83c54.83,469.95,164.48,908.56,234.97,1355.01h203.64L3879.2,0h-219.31l-7.83,610.93c0,187.98,7.83,563.94,15.66,744.08h-7.83c-54.83-469.95-164.48-908.56-234.97-1355.01h-211.48l-31.33,2114.76ZM2727.83,39.16l-219.31,31.33,297.63,1871.96-219.31,31.33L2289.21,109.65l-219.31,31.33,281.97,1777.97c39.16,180.15,211.48,289.8,383.79,258.47,164.48-31.33,281.97-187.98,258.47-360.29L2727.83,39.16ZM1623.45,2467.22l211.48-70.49-289.8-900.73,211.48-70.49,289.8,900.73,211.48-70.49L1592.12,258.47l-211.48,70.49,289.8,900.73-211.48,70.49-289.8-900.73-203.64,54.83,657.93,2012.94ZM1184.83,2686.53l195.81-93.99L550.4,885.07l195.81-93.99-93.99-203.64L64.79,877.23l93.99,195.81,195.81-93.99,830.24,1707.47Z"/>
    <path class="cls-7" d="M1349.31,5615.87c-23.5,0-46.99-7.83-62.66-7.83-219.31-93.99-109.65-328.96-39.16-469.95,86.16-187.98,172.31-383.79,266.3-571.77-477.78,148.82-939.89,305.47-1394.18,469.95-109.65,46.99-180.15-23.5-46.99-101.82,477.78-305.47,986.89-571.77,1503.83-791.08-133.15-281.97-242.81-579.6-321.13-892.9l-62.66-250.64c791.08-415.12,1456.84-642.26,2357.57-642.26s1566.49,227.14,2357.57,634.43c-15.66,62.66-31.33,117.49-46.99,180.15,383.79-15.66,767.58-7.83,1143.54,23.5,86.16,7.83,86.16,109.65,0,117.49-407.29,54.83-830.24,125.32-1253.19,203.64-23.5,78.32-54.83,156.65-86.16,234.97,438.62-93.99,877.23-156.65,1323.68-187.98,109.65-7.83,109.65,93.99,23.5,117.49-501.28,148.82-1010.39,321.13-1527.33,509.11-430.79,892.9-1080.88,1503.83-1934.62,2020.77-383.79-219.31-736.25-485.61-1049.55-791.08-704.92,328.96-1378.51,673.59-2020.77,1026.05-93.99,62.66-180.15,7.83-70.49-93.99,297.63-266.3,618.76-509.11,939.89-736.25Z"/>
    <path class="cls-1" d="M5578.84,3830.07c469.95-101.82,939.89-180.15,1417.67-219.31-509.11,156.65-1026.05,328.96-1550.83,516.94,47-93.99,93.99-195.81,133.15-297.63ZM448.58,6391.28c422.95-375.96,885.07-712.75,1362.85-1018.22l281.97-140.98,211.48-101.82c62.66,70.49,133.15,140.98,203.64,211.48-720.59,336.8-1409.84,689.26-2059.94,1049.55Z"/>
    <path class="cls-3" d="M5782.48,3234.8c407.29-15.66,814.58-7.83,1214.03,15.66-422.95,62.66-853.74,133.15-1284.52,211.48,23.5-78.32,46.99-156.65,70.49-227.14ZM96.12,4973.61c493.44-313.3,1018.22-587.43,1558.66-806.74,15.66,39.16,39.16,78.32,54.83,109.65-31.33,62.66-62.66,125.32-86.16,187.98-524.77,156.65-1033.88,328.96-1527.33,509.11Z"/>
    <path class="cls-7" d="M3119.45,4754.3l70.49-31.33,180.15-140.98,39.16-109.65c23.5,54.83,39.16,70.49,62.66,125.32l54.83-23.5v164.48c-133.15,31.33-266.3,46.99-407.29,46.99v-31.33ZM3628.56,4519.33l219.31-93.99,31.33-39.16h46.99c31.33-7.83,70.49-15.66,101.82-23.5-23.5,78.32-39.16,156.65-46.99,234.97-101.82,39.16-219.31,70.49-352.46,101.82v-180.15ZM3550.23,2561.21c791.08,0,1417.67,187.98,2122.59,532.61-352.46,1300.19-979.06,2169.59-2122.59,2874.51-407.29-242.81-783.25-548.27-1104.38-900.73l422.95-203.64c54.83,7.83,109.65,7.83,156.65,7.83,0,62.66-23.5,125.32-62.66,164.48,23.5,23.5,46.99,46.99,62.66,78.32,70.49-62.66,101.82-148.82,101.82-242.81,133.15,0,266.3-15.66,399.45-46.99-7.83,203.64-39.16,352.46-93.99,415.12v7.83c-15.66,15.66-23.5,31.33-39.16,39.16,54.83-7.83,109.65-23.5,164.48-39.16,70.49-140.98,70.49-391.62,70.49-438.62,133.15-31.33,242.81-62.66,352.46-101.82-7.83,109.65,46.99,219.31,140.98,274.14,39.16-31.33,78.32-62.66,117.49-93.99-23.5,0-164.48,15.66-164.48-219.31,266.3-86.16,501.28-250.64,681.42-462.11,46.99-101.82,86.16-211.48,109.65-328.96-211.48,328.96-399.45,524.77-775.41,673.59,15.66-78.32,31.33-164.48,62.66-242.81,109.65-46.99,227.14-101.82,289.8-125.32l164.48-172.31c39.16-156.65,86.16-321.13,125.32-477.78l-125.32,39.16,148.82-156.65,93.99-375.96-227.14,46.99c15.66-62.66,23.5-125.32,23.5-187.98-39.16-7.83-70.49-15.66-109.65-23.5-7.83,78.32-23.5,156.65-39.16,234.97h-7.83c-78.32,7.83-148.82,39.16-211.48,86.16l23.5-62.66-368.13,70.49-125.32,117.49v-7.83l39.16-101.82c-117.49,23.5-242.81,46.99-360.29,78.32-23.5-164.48-46.99-305.47-70.49-430.78l-101.82,15.66c23.5,117.49,46.99,274.14,70.49,438.62l-86.16,15.66-109.65,117.49c-78.32-78.32-227.14-31.33-328.96-7.83-101.82,23.5-211.48,54.83-313.3,78.32-31.33,7.83-62.66,15.66-93.99,31.33-78.32-109.65-148.82-234.97-211.48-352.46v-31.33l-101.82,39.16,15.66,31.33c62.66,125.32,133.15,234.97,211.48,352.46-117.49,46.99-219.31,125.32-305.47,219.31l-164.48,172.31c-39.16,39.16-70.49,86.16-101.82,140.98-156.65-328.96-281.97-665.76-368.13-1018.22,704.92-352.46,1323.68-540.44,2122.59-540.44Z"/>
    <path class="cls-3" d="M3119.45,4754.3l70.49-31.33,180.15-140.98,39.16-109.65c23.5,54.83,39.16,70.49,62.66,125.32l54.83-23.5v164.48c-133.15,31.33-266.3,46.99-407.29,46.99v-31.33ZM3628.56,4519.33l219.31-93.99,31.33-39.16h46.99c31.33-7.83,70.49-15.66,101.82-23.5-23.5,78.32-39.16,156.65-46.99,234.97-101.82,39.16-219.31,70.49-352.46,101.82v-180.15ZM2242.21,3164.31c344.63-140.98,704.92-242.81,1080.88-297.63,23.5,117.49,46.99,274.14,70.49,438.62l-86.16,15.66-109.65,117.49c-78.32-78.32-227.14-31.33-328.96-7.83-101.82,23.5-211.48,54.83-313.3,78.32-31.33,7.83-62.66,15.66-93.99,31.33-78.32-109.65-148.82-234.97-211.48-352.46l-7.83-23.5ZM2156.06,3712.58c-54.83-140.98-109.65-289.8-148.82-446.45,46.99-23.5,93.99-46.99,140.98-62.66l15.66,31.33c62.66,125.32,133.15,234.97,211.48,352.46-86.16,31.33-156.65,70.49-219.31,125.32ZM2962.8,5044.1c-46.99-54.83-86.16-101.82-133.15-156.65l39.16-15.66c54.83,7.83,109.65,7.83,156.65,7.83,0,62.66-23.5,117.49-62.66,164.48ZM3393.58,5294.74c-54.83,7.83-117.49,15.66-172.31,23.5-62.66-62.66-125.32-125.32-187.98-195.81,70.49-62.66,101.82-148.82,101.82-242.81,133.15,0,266.3-15.66,399.45-46.99-7.83,203.64-39.16,352.46-93.99,415.12v7.83c-23.5,15.66-39.16,23.5-46.99,39.16ZM4122,4981.44c-172.31,117.49-360.29,211.48-563.94,266.3,70.49-140.98,70.49-391.62,70.49-438.62,133.15-31.33,242.81-62.66,352.46-101.82-7.83,109.65,46.99,219.31,140.98,274.14h0ZM4756.43,4213.86c-117.49,266.3-289.8,493.44-509.11,681.42-23.5,0-164.48,15.66-164.48-219.31,258.47-93.99,493.44-250.64,673.59-462.11h0ZM3973.19,2827.52c164.48,0,328.96,7.83,493.44,23.5,125.32,23.5,250.64,54.83,368.13,93.99,86.16,305.47,93.99,626.6,23.5,939.89-211.48,328.96-399.45,524.77-775.41,673.59,15.66-78.32,31.33-164.48,62.66-242.81,109.65-46.99,227.14-101.82,289.8-125.32l164.48-172.31c39.16-156.65,86.16-321.13,125.32-477.78l-125.32,39.16,148.82-156.65,93.99-375.96-227.14,31.33c15.66-62.66,23.5-125.32,31.33-187.98-39.16-7.83-70.49-15.66-109.65-23.5-7.83,78.32-23.5,156.65-39.16,234.97h-7.83c-78.32,7.83-148.82,39.16-211.48,86.16l23.5-62.66-368.13,70.49-125.32,125.32v-7.83l39.16-101.82c-117.49,23.5-242.81,46.99-360.29,78.32-23.5-164.48-46.99-305.47-70.49-430.78,187.98-23.5,368.13-31.33,556.1-31.33Z"/>
    <path class="cls-4" d="M1991.58,3877.06c-101.82-219.31-180.15-446.45-242.81-673.59,579.6-274.14,1206.2-430.78,1840.63-446.45,297.63,0,587.43,31.33,877.23,93.99-164.48-15.66-328.96-23.5-493.44-23.5-187.98,0-368.13,7.83-556.1,31.33l-101.82,15.66c-368.13,54.83-728.42,148.82-1080.88,289.8l-93.99,39.16c-46.99,23.5-93.99,39.16-140.98,62.66,39.16,148.82,93.99,297.63,148.82,446.45-31.33,31.33-62.66,62.66-93.99,93.99l-62.66,70.49ZM3581.56,5756.85c-336.8-227.14-634.43-493.44-900.73-798.91l148.82-70.49c39.16,54.83,86.16,109.65,133.15,156.65,23.5,23.5,46.99,46.99,62.66,78.32,195.81,211.48,407.29,407.29,634.43,579.6l-78.32,54.83Z"/>
    <path class="cls-2" d="M3119.45,4754.3v23.5c133.15,0,274.14-15.66,407.29-46.99v-164.48l-54.83,23.5c-23.5-54.83-39.16-70.49-62.66-125.32l-46.99,109.65-172.31,140.98-70.49,39.16ZM3628.56,4519.33c0,62.66,0,125.32,7.83,180.15,133.15-31.33,250.64-70.49,352.46-101.82,7.83-78.32,23.5-156.65,46.99-234.97-31.33,15.66-62.66,23.5-101.82,23.5h-46.99l-31.33,39.16-227.14,93.99ZM3550.23,2561.21c-791.08,0-1417.67,187.98-2122.59,532.61,86.16,352.46,211.48,689.26,368.13,1018.22,31.33-46.99,62.66-93.99,101.82-140.98l164.48-172.31c86.16-93.99,187.98-172.31,305.47-219.31-78.32-109.65-148.82-227.14-211.48-352.46l-15.66-31.33,93.99-39.16,7.83,23.5c62.66,125.32,133.15,242.81,211.48,352.46,31.33-7.83,62.66-23.5,93.99-31.33,101.82-31.33,211.48-54.83,313.3-78.32,101.82-23.5,250.64-78.32,328.96,7.83l109.65-117.49,86.16-23.5c-23.5-164.48-54.83-313.3-70.49-438.62l101.82-15.66c23.5,117.49,46.99,266.3,70.49,430.78,117.49-23.5,242.81-54.83,360.29-78.32l-39.16,101.82v31.33l117.49-125.32,368.13-70.49-23.5,62.66c62.66-46.99,133.15-78.32,211.48-86.16h7.83c15.66-78.32,31.33-156.65,39.16-234.97,39.16,7.83,70.49,15.66,109.65,23.5-7.83,62.66-15.66,125.32-23.5,187.98l227.14-31.33-93.99,375.96-148.82,156.65,117.49-31.33c-39.16,156.65-78.32,313.3-125.32,477.78l-164.48,172.31c-70.49,31.33-180.15,86.16-289.8,125.32-23.5,78.32-46.99,156.65-62.66,242.81,375.96-148.82,571.77-344.63,775.41-673.59-23.5,109.65-62.66,219.31-109.65,328.96-180.15,211.48-415.12,368.13-681.42,462.11,0,234.97,140.98,219.31,164.48,219.31-39.16,31.33-78.32,62.66-117.49,93.99-93.99-54.83-148.82-164.48-140.98-274.14-101.82,39.16-219.31,70.49-352.46,101.82,0,46.99,0,297.63-70.49,446.45-54.83,15.66-109.65,31.33-164.48,39.16,7.83-7.83,23.5-23.5,39.16-39.16v-7.83c54.83-62.66,86.16-211.48,93.99-415.12-133.15,23.5-266.3,39.16-399.45,46.99,7.83,93.99-31.33,180.15-93.99,242.81-23.5-23.5-46.99-46.99-62.66-78.32,39.16-46.99,62.66-109.65,62.66-172.31-46.99,0-101.82,0-156.65-7.83l-422.95,203.64c321.13,352.46,697.09,657.93,1104.38,900.73,1143.54-704.92,1770.13-1582.16,2114.76-2874.51-689.26-360.29-1315.85-548.27-2106.93-548.27ZM1255.32,3023.33c759.75-391.62,1425.51-603.1,2287.08-603.1s1527.33,211.48,2287.08,603.1c-344.63,1417.67-1018.22,2365.4-2279.24,3117.32-462.11-274.14-877.23-610.93-1237.53-1010.39l-211.48,101.82c-117.49,62.66-234.97,117.49-352.46,180.15-133.15,70.49-281.97,172.31-438.62,133.15-164.48-70.49-54.83-281.97-7.83-391.62,133.15-297.63,266.3-587.43,407.29-877.23-172.31-328.96-313.3-681.42-399.46-1049.55l-54.83-203.64Z"/>
    <path class="cls-5" d="M4490.13,3164.31c-70.49,7.83-140.98,39.16-195.81,93.99-39.16,46.99-70.49,101.82-86.16,164.48-54.83,180.15-117.49,368.13-172.31,548.27-23.5,70.49-62.66,203.64,54.83,195.81,39.16-7.83,78.32-23.5,117.49-39.16,117.49-54.83,234.97-101.82,352.46-148.82,31.33-117.49,62.66-227.14,86.16-344.63l-187.98,62.66c-15.66,54.83-31.33,101.82-39.16,156.65l-125.32,46.99,164.48-556.1,117.49-23.5c-7.83,31.33-15.66,62.66-23.5,93.99l164.48-39.16,62.66-250.64-289.8,39.16ZM3965.35,3250.47c-133.15,172.31-258.47,344.63-391.62,516.94,62.66-156.65,117.49-313.3,180.15-477.78-133.15,23.5-274.14,54.83-407.29,86.16-31.33,78.32-70.49,164.48-101.82,242.81l86.16-23.5c-101.82,258.47-211.48,516.94-313.3,775.41l-125.32,313.3c133.15-62.66,274.14-125.32,407.29-187.98,62.66-172.31,125.32-336.8,187.98-509.11,54.83,117.49,117.49,234.97,172.31,352.46,86.16-39.16,172.31-78.32,266.3-117.49-54.83-125.32-109.65-242.81-164.48-368.13,101.82-140.98,203.64-289.8,297.63-438.62l86.16-15.66c23.5-62.66,39.16-125.32,62.66-187.98-86.16,7.83-164.48,23.5-242.81,39.16ZM2344.04,4668.14l-281.97,125.32c133.15-313.3,281.97-626.6,422.95-939.89l250.64-78.32c-133.15,297.63-266.3,595.27-391.62,892.9ZM2571.18,3579.43c-180.15,39.16-344.63,133.15-469.95,266.3-70.49,86.16-125.32,180.15-172.31,281.97-140.98,289.8-281.97,587.43-407.29,877.23-31.33,78.32-140.98,266.3-31.33,313.3,125.32,31.33,281.97-70.49,391.62-125.32,109.65-54.83,234.97-117.49,360.29-180.15,203.64-86.16,383.79-234.97,509.11-422.95,46.99-86.16,86.16-172.31,125.32-258.47,78.32-187.98,156.65-383.79,234.97-571.77,31.33-70.49,86.16-164.48,62.66-234.97-31.33-101.82-211.48-39.16-289.8-23.5-101.82,23.5-211.48,46.99-313.3,78.32Z"/>
    <path class="cls-1" d="M4991.4,2999.83l156.65,54.83c-54.83-15.66-101.82-31.33-156.65-54.83ZM4983.57,2992c54.83,15.66,109.65,39.16,156.65,54.83,133.15,46.99,242.81,93.99,336.8,140.98-281.97,994.72-892.9,1864.12-1738.8,2467.22l-70.49,46.99c-140.98-101.82-266.3-211.48-391.62-328.96l117.49-15.66c1026.05-187.98,1723.14-1159.2,1550.83-2193.09l-7.83-39.16v-117.49l-15.66-54.83,62.66,39.16Z"/>
  </g>
</svg>